<?xml version="1.0" encoding="UTF-8"?>
<svg version="1.1" xmlns="http://www.w3.org/2000/svg" width="474" height="474">
<path d="M0 0 C156.42 0 312.84 0 474 0 C474 156.42 474 312.84 474 474 C317.58 474 161.16 474 0 474 C0 317.58 0 161.16 0 0 Z " fill="#019DD0" transform="translate(0,0)"/>
<path d="M0 0 C156.42 0 312.84 0 474 0 C474 32.67 474 65.34 474 99 C317.58 99 161.16 99 0 99 C0 66.33 0 33.66 0 0 Z " fill="#2F2E2E" transform="translate(0,375)"/>
<path d="M0 0 C0.99 0.33 1.98 0.66 3 1 C3 1.66 3 2.32 3 3 C3.7115625 3.23074219 4.423125 3.46148437 5.15625 3.69921875 C8.56533185 5.25859273 10.76718069 7.25240102 13.5 9.8125 C14.87671875 11.09060547 14.87671875 11.09060547 16.28125 12.39453125 C39.42136324 34.57047311 55.43759013 61.80433392 56.203125 94.46875 C56.4882428 119.9813793 53.43281779 142.84817434 40 165 C39.54109375 165.77214844 39.0821875 166.54429687 38.609375 167.33984375 C34.83388914 173.33939456 30.20971925 178.63329377 25.5859375 183.984375 C23.99471297 185.8400024 22.43667568 187.72549345 20.9375 189.65625 C3.75654581 210.43966233 -27.17045079 221.38742889 -53 224 C-68.6239737 224.99286144 -84.12786293 225.33152084 -99 220 C-100.35011708 219.54774894 -101.70038295 219.0959419 -103.05078125 218.64453125 C-116.27843969 214.07477815 -127.92782537 207.57147545 -139 199 C-140.31677734 198.00806641 -140.31677734 198.00806641 -141.66015625 196.99609375 C-147.11349412 192.79299322 -151.67908158 188.35243741 -156 183 C-156.804375 182.05125 -157.60875 181.1025 -158.4375 180.125 C-160 178 -160 178 -160 176 C-160.66 176 -161.32 176 -162 176 C-163.26171875 174.19921875 -163.26171875 174.19921875 -164.6875 171.6875 C-166.26136186 168.93609986 -167.8088857 166.26406894 -169.66796875 163.6953125 C-182.94730533 145.15893878 -185.10365225 122.65998266 -185.25 100.625 C-185.25966797 99.34036865 -185.26933594 98.0557373 -185.27929688 96.73217773 C-185.25323284 89.57247919 -184.81080612 82.93496921 -183 76 C-182.82839355 75.33661621 -182.65678711 74.67323242 -182.47998047 73.98974609 C-178.48071587 59.43033182 -172.8202056 45.32120826 -164 33 C-163.4534375 32.23042969 -162.906875 31.46085937 -162.34375 30.66796875 C-149.10607741 13.16288855 -133.41179049 1.16607356 -113.75048828 -8.16748047 C-112.29461456 -8.85988345 -110.84731336 -9.57027655 -109.40234375 -10.28515625 C-103.4898275 -13.10728288 -97.4012732 -14.67261942 -91 -16 C-89.53240234 -16.31130859 -89.53240234 -16.31130859 -88.03515625 -16.62890625 C-59.38542692 -21.69307349 -23.77250358 -18.42914268 0 0 Z " fill="#029CCF" transform="translate(301,84)"/>
<path d="M0 0 C0.99 0.33 1.98 0.66 3 1 C3 1.66 3 2.32 3 3 C3.7115625 3.23074219 4.423125 3.46148437 5.15625 3.69921875 C8.56533185 5.25859273 10.76718069 7.25240102 13.5 9.8125 C14.87671875 11.09060547 14.87671875 11.09060547 16.28125 12.39453125 C39.42136324 34.57047311 55.43759013 61.80433392 56.203125 94.46875 C56.4882428 119.9813793 53.43281779 142.84817434 40 165 C39.54109375 165.77214844 39.0821875 166.54429687 38.609375 167.33984375 C34.83388914 173.33939456 30.20971925 178.63329377 25.5859375 183.984375 C23.99471297 185.8400024 22.43667568 187.72549345 20.9375 189.65625 C3.75654581 210.43966233 -27.17045079 221.38742889 -53 224 C-68.6239737 224.99286144 -84.12786293 225.33152084 -99 220 C-100.35011708 219.54774894 -101.70038295 219.0959419 -103.05078125 218.64453125 C-116.27843969 214.07477815 -127.92782537 207.57147545 -139 199 C-140.31677734 198.00806641 -140.31677734 198.00806641 -141.66015625 196.99609375 C-147.11349412 192.79299322 -151.67908158 188.35243741 -156 183 C-156.804375 182.05125 -157.60875 181.1025 -158.4375 180.125 C-160 178 -160 178 -160 176 C-160.66 176 -161.32 176 -162 176 C-163.26171875 174.19921875 -163.26171875 174.19921875 -164.6875 171.6875 C-166.26136186 168.93609986 -167.8088857 166.26406894 -169.66796875 163.6953125 C-182.94730533 145.15893878 -185.10365225 122.65998266 -185.25 100.625 C-185.25966797 99.34036865 -185.26933594 98.0557373 -185.27929688 96.73217773 C-185.25323284 89.57247919 -184.81080612 82.93496921 -183 76 C-182.82839355 75.33661621 -182.65678711 74.67323242 -182.47998047 73.98974609 C-178.48071587 59.43033182 -172.8202056 45.32120826 -164 33 C-163.4534375 32.23042969 -162.906875 31.46085937 -162.34375 30.66796875 C-149.10607741 13.16288855 -133.41179049 1.16607356 -113.75048828 -8.16748047 C-112.29461456 -8.85988345 -110.84731336 -9.57027655 -109.40234375 -10.28515625 C-103.4898275 -13.10728288 -97.4012732 -14.67261942 -91 -16 C-89.53240234 -16.31130859 -89.53240234 -16.31130859 -88.03515625 -16.62890625 C-59.38542692 -21.69307349 -23.77250358 -18.42914268 0 0 Z M-129 46 C-129.69996094 46.73347656 -130.39992188 47.46695313 -131.12109375 48.22265625 C-145.73320668 65.19700453 -151.77663158 87.38460851 -150.26611328 109.40283203 C-147.70556151 134.39287764 -135.72710029 155.45772808 -117 172 C-115.36630193 173.05299971 -113.69843685 174.05496559 -112 175 C-111.08863281 175.55558594 -110.17726562 176.11117187 -109.23828125 176.68359375 C-92.91668793 186.46783327 -76.91278344 190.04559547 -58 189 C-56.74461426 188.94525513 -56.74461426 188.94525513 -55.46386719 188.8894043 C-48.4474106 188.44386554 -42.43221432 186.7887476 -35.875 184.3125 C-34.48861328 183.82233398 -34.48861328 183.82233398 -33.07421875 183.32226562 C-26.74541063 180.98801552 -21.42859426 177.98887241 -16 174 C-15.0925 173.33355469 -14.185 172.66710937 -13.25 171.98046875 C-2.92789654 163.75504255 4.549887 155.593874 11 144 C11.56976563 142.98421875 12.13953125 141.9684375 12.7265625 140.921875 C22.54277677 122.44998411 24.02758698 99.26963454 18.06640625 79.30859375 C17.71449219 78.21675781 17.36257813 77.12492187 17 76 C16.76152344 75.22785156 16.52304687 74.45570313 16.27734375 73.66015625 C15.61269398 71.71396622 14.84796915 69.87367856 14 68 C13.38705078 66.61941406 13.38705078 66.61941406 12.76171875 65.2109375 C3.1567462 44.75830054 -14.54580033 29.2871004 -35.609375 21.44140625 C-69.6933287 9.71465111 -104.80853252 19.79742461 -129 46 Z " fill="#FBFDFC" transform="translate(301,84)"/>
<path d="M0 0 C156.42 0 312.84 0 474 0 C474 1.98 474 3.96 474 6 C472.27789829 7.72210171 470.07777692 7.12342259 467.78153703 7.13100848 C467.02530865 7.12838146 466.26908027 7.12575445 465.48993587 7.12304783 C464.69018128 7.12420167 463.89042668 7.12535552 463.0664371 7.12654433 C460.35188326 7.12921839 457.63738721 7.12468239 454.9228363 7.12025452 C452.97094253 7.12069006 451.01904882 7.12156465 449.06715542 7.12284368 C443.67646297 7.12509201 438.28579018 7.12106277 432.89510024 7.11606562 C427.09206428 7.11176612 421.28902953 7.11320719 415.48599243 7.1139679 C405.4228584 7.11449345 395.35973084 7.11134338 385.29659843 7.10573006 C370.7468146 7.0976193 356.19703376 7.09499693 341.64724792 7.09374207 C318.04388292 7.09163987 294.4405213 7.08489754 270.8371582 7.07543945 C247.90226255 7.06625981 224.96736782 7.05917385 202.0324707 7.05493164 C201.32591378 7.05480011 200.61935686 7.05466859 199.89138913 7.05453308 C192.79606059 7.05321459 185.70073205 7.05193877 178.60540349 7.05069422 C164.15051492 7.04815779 149.6956264 7.04533653 135.24073792 7.04234314 C134.57607894 7.04220585 133.91141997 7.04206856 133.22661982 7.04192711 C88.81774514 7.03272149 44.40887235 7.01685496 0 7 C0 4.69 0 2.38 0 0 Z " fill="#22313B" transform="translate(0,375)"/>
<path d="M0 0 C1.10601562 0.00644531 2.21203125 0.01289063 3.3515625 0.01953125 C6.375 0.1875 6.375 0.1875 10.375 1.1875 C10.375 4.4875 10.375 7.7875 10.375 11.1875 C11.035 11.1875 11.695 11.1875 12.375 11.1875 C11.88 9.7025 11.88 9.7025 11.375 8.1875 C11.65071139 6.17874558 11.97735737 4.17571313 12.375 2.1875 C12.705 2.1875 13.035 2.1875 13.375 2.1875 C13.87 4.1675 13.87 4.1675 14.375 6.1875 C14.375 5.5275 14.375 4.8675 14.375 4.1875 C15.365 4.1875 16.355 4.1875 17.375 4.1875 C17.375 3.1975 17.375 2.2075 17.375 1.1875 C21.04139248 1.07021874 24.7072952 0.99989109 28.375 0.9375 C29.40496094 0.90398437 30.43492188 0.87046875 31.49609375 0.8359375 C38.29102978 0.74937781 42.60152802 1.52939582 48.375 5.1875 C51.01071016 8.87749422 50.52662379 12.70832262 49.921875 17.03515625 C48.78488902 21.51000822 46.08459067 23.71443955 42.375 26.1875 C42.81070313 26.63738281 43.24640625 27.08726562 43.6953125 27.55078125 C48.68009859 32.93478181 52.09219834 38.64594651 55.375 45.1875 C45.31190852 45.9682571 45.31190852 45.9682571 42.125 43.3125 C41.5475 42.28125 40.97 41.25 40.375 40.1875 C39.25216542 38.42265538 38.10410285 36.67372343 36.9375 34.9375 C36.10412109 33.63039063 36.10412109 33.63039063 35.25390625 32.296875 C33.27140793 29.64524105 33.27140793 29.64524105 28.375 29.1875 C28.375 34.4675 28.375 39.7475 28.375 45.1875 C24.745 45.1875 21.115 45.1875 17.375 45.1875 C17.045 44.5275 16.715 43.8675 16.375 43.1875 C15.715 43.1875 15.055 43.1875 14.375 43.1875 C14.375 42.1975 14.375 41.2075 14.375 40.1875 C13.715 40.1875 13.055 40.1875 12.375 40.1875 C12.045 39.1975 11.715 38.2075 11.375 37.1875 C11.87 36.1975 11.87 36.1975 12.375 35.1875 C11.715 35.1875 11.055 35.1875 10.375 35.1875 C10.375 38.1575 10.375 41.1275 10.375 44.1875 C11.035 44.1875 11.695 44.1875 12.375 44.1875 C11.88 45.1775 11.88 45.1775 11.375 46.1875 C8.20851345 46.27570927 5.04234908 46.3282905 1.875 46.375 C0.5446875 46.41270508 0.5446875 46.41270508 -0.8125 46.45117188 C-8.1245629 46.53181963 -13.99378145 45.76024702 -19.4375 40.4375 C-24.65560062 32.68489337 -25.63233887 26.53143643 -24.625 17.1875 C-22.89908257 10.59862024 -18.22197223 5.87233937 -12.625 2.1875 C-8.29998145 0.38738926 -4.6659865 -0.06010053 0 0 Z " fill="#303030" transform="translate(96.625,400.8125)"/>
<path d="M0 0 C2.57385205 -0.2773676 4.87031753 -0.37287588 7.4375 -0.3125 C8.11876953 -0.31572266 8.80003906 -0.31894531 9.50195312 -0.32226562 C13.19980816 -0.28242585 14.85171631 -0.0988558 18 2 C18.29209404 4.46840328 18.38901653 6.68614674 18.35644531 9.15600586 C18.35951187 10.26112267 18.35951187 10.26112267 18.36264038 11.38856506 C18.36565542 13.83090811 18.34714844 16.27258061 18.328125 18.71484375 C18.32506816 20.40873548 18.32319147 22.10262972 18.32244873 23.79652405 C18.31784093 27.35004263 18.30339834 30.90333519 18.28125 34.45678711 C18.2529888 39.01446497 18.2420411 43.57196449 18.2375679 48.12972164 C18.23341236 51.62897023 18.22359338 55.12818266 18.21169281 58.6274128 C18.20599025 60.30795566 18.20123149 61.98850199 18.19742584 63.66905022 C18.19055768 66.01762881 18.17692197 68.36606616 18.16113281 70.71459961 C18.16001495 71.41132782 18.15889709 72.10805603 18.15774536 72.82589722 C18.13097236 75.82997469 17.95846282 78.12461153 17 81 C-2.14 81 -21.28 81 -41 81 C-42.57977708 77.84044583 -42.18447084 74.46536183 -42.1875 71 C-42.19974609 70.26265625 -42.21199219 69.5253125 -42.22460938 68.765625 C-42.22987395 66.84229942 -42.12203447 64.91945737 -42 63 C-40 61 -40 61 -36.28466797 60.77294922 C-34.68713948 60.77326649 -33.08958973 60.78460018 -31.4921875 60.8046875 C-30.23125778 60.80893234 -30.23125778 60.80893234 -28.94485474 60.81326294 C-26.25475954 60.8244757 -23.5649949 60.84958197 -20.875 60.875 C-19.05339022 60.8850284 -17.23177523 60.89415449 -15.41015625 60.90234375 C-10.93997642 60.92441858 -6.47004429 60.95895566 -2 61 C-2.00444122 60.28003342 -2.00888245 59.56006683 -2.01345825 58.81828308 C-2.05352322 52.03509668 -2.08397843 45.25192795 -2.10362434 38.46865368 C-2.11406404 34.98124839 -2.12822649 31.49394084 -2.15087891 28.0065918 C-2.17675512 23.99787454 -2.18647123 19.98926003 -2.1953125 15.98046875 C-2.20563507 14.72727341 -2.21595764 13.47407806 -2.22659302 12.1829071 C-2.22681961 10.44144157 -2.22681961 10.44144157 -2.22705078 8.66479492 C-2.231492 7.64109299 -2.23593323 6.61739105 -2.24050903 5.56266785 C-2 3 -2 3 0 0 Z " fill="#FCFDFD" transform="translate(239,126)"/>
<path d="M0 0 C156.42 0 312.84 0 474 0 C474 1.65 474 3.3 474 5 C317.58 5 161.16 5 0 5 C0 3.35 0 1.7 0 0 Z " fill="#0F98C9" transform="translate(0,370)"/>
<path d="M0 0 C5.97127308 3.20824979 10.17070783 7.63098306 12.27734375 14.03515625 C13.92753928 21.35230233 13.09794969 28.5488503 9.78125 35.26953125 C7.03317261 39.55819748 3.82791516 43.08886105 -1.10546875 44.828125 C-7.5311764 46.17027835 -13.93720163 46.50773374 -19.71875 43.08203125 C-25.34091726 38.91487622 -28.57023667 34.04148169 -30.21875 27.26953125 C-31.1879347 20.13493062 -29.97015055 13.48004386 -26.21875 7.26953125 C-25.22875 6.93953125 -24.23875 6.60953125 -23.21875 6.26953125 C-22.88875 5.27953125 -22.55875 4.28953125 -22.21875 3.26953125 C-15.88908022 -1.76543334 -7.69808951 -2.53440623 0 0 Z " fill="#F4F4F4" transform="translate(311.21875,401.73046875)"/>
<path d="M0 0 C5.22042432 5.22042432 6.57631402 9.93874071 6.75 17.3125 C6.43474912 26.00971555 5.33950161 30.71017486 -1.0625 36.75 C-4.26090599 39.55822244 -6.45781838 40.80468108 -10.6875 41.3125 C-11.61046875 41.4259375 -12.5334375 41.539375 -13.484375 41.65625 C-19.15437837 41.95625018 -23.01034329 41.71970025 -27.6875 38.3125 C-32.61263813 33.82535056 -35.29434752 29.91944541 -36.0234375 23.23046875 C-36.26985279 15.08928671 -35.29225858 8.30646316 -30.8125 1.4375 C-21.9994403 -7.3755597 -9.90444638 -6.21907099 0 0 Z " fill="#F5F5F5" transform="translate(189.6875,405.6875)"/>
<path d="M0 0 C21 0 21 0 28 3 C30.66868979 6.00227601 31 7.46974731 31 11.5 C29.83136008 15.59023974 28.20943556 17.28432376 25 20 C26.134375 20.639375 27.26875 21.27875 28.4375 21.9375 C30.66641074 23.53669815 31.81088777 24.52275924 32.828125 27.08984375 C33.45900003 31.10138605 33.26544922 34.21910155 31.4375 37.875 C28.63406858 41.46914284 27.26477238 42.43609544 23 44 C19.03119129 44.35356544 15.10530847 44.28234919 11.125 44.1875 C7.45375 44.125625 3.7825 44.06375 0 44 C0 29.48 0 14.96 0 0 Z " fill="#F5F5F5" transform="translate(332,402)"/>
<path d="M0 0 C22 0 22 0 30 4 C32.63571016 7.68999422 32.15162379 11.52082262 31.546875 15.84765625 C30.40988902 20.32250822 27.70959067 22.52693955 24 25 C24.65355469 25.67482422 24.65355469 25.67482422 25.3203125 26.36328125 C30.30509859 31.74728181 33.71719834 37.45844651 37 44 C26.93690852 44.7807571 26.93690852 44.7807571 23.75 42.125 C23.1725 41.09375 22.595 40.0625 22 39 C20.87716542 37.23515538 19.72910285 35.48622343 18.5625 33.75 C18.00691406 32.87859375 17.45132813 32.0071875 16.87890625 31.109375 C14.89640793 28.45774105 14.89640793 28.45774105 10 28 C10 33.28 10 38.56 10 44 C6.7 44 3.4 44 0 44 C0 29.48 0 14.96 0 0 Z " fill="#F8F8F8" transform="translate(115,402)"/>
<path d="M0 0 C11 0 11 0 14.015625 2.89453125 C14.80091713 4.17657637 15.54466622 5.48478479 16.25 6.8125 C16.85303955 7.82896606 16.85303955 7.82896606 17.46826172 8.8659668 C18.28227885 10.24020782 19.081195 11.62351333 19.86425781 13.015625 C21.49613364 15.86684743 23.31123114 18.57363618 25.125 21.3125 C28 25.74423963 28 25.74423963 28 28 C28.66 28 29.32 28 30 28 C30 18.76 30 9.52 30 0 C32.97 0 35.94 0 39 0 C39 14.52 39 29.04 39 44 C36.03 44 33.06 44 30 44 C29.67 43.01 29.34 42.02 29 41 C28.34 41 27.68 41 27 41 C25.62037252 39.15798439 24.33231115 37.24716954 23.0859375 35.3125 C22.71143463 34.73540283 22.33693176 34.15830566 21.95108032 33.5637207 C20.75243449 31.71332898 19.56366757 29.85681378 18.375 28 C17.56574539 26.74698147 16.75585763 25.49437161 15.9453125 24.2421875 C13.95491686 21.16686309 11.97798975 18.08346154 10 15 C9.67 24.57 9.34 34.14 9 44 C6.03 44 3.06 44 0 44 C0 29.48 0 14.96 0 0 Z " fill="#F8F8F8" transform="translate(205,402)"/>
<path d="M0 0 C1.10085938 0.00644531 2.20171875 0.01289063 3.3359375 0.01953125 C6.50509206 0.18137644 9.50948397 0.5992228 12.625 1.1875 C12.625 4.4875 12.625 7.7875 12.625 11.1875 C11.820625 10.8575 11.01625 10.5275 10.1875 10.1875 C5.59026141 8.89704706 0.05029333 7.97485334 -4.375 10.1875 C-5.03055119 12.71483235 -5.03055119 12.71483235 -5.375 15.1875 C-3.10465952 16.34450044 -0.82347025 17.43628788 1.5 18.484375 C12.30761965 23.50991814 12.30761965 23.50991814 14.625 29.1875 C15.27074174 34.35343393 14.72286237 37.96314222 11.625 42.1875 C5.08011561 46.91680125 -2.59178774 47.02734474 -10.375 46.1875 C-12.39344214 45.57894782 -14.40092317 44.92740886 -16.375 44.1875 C-16.375 40.8875 -16.375 37.5875 -16.375 34.1875 C-15.034375 34.6825 -13.69375 35.1775 -12.3125 35.6875 C-7.35735213 37.33142484 -2.92338561 38.23299153 2.0625 36.1875 C2.8359375 35.6925 2.8359375 35.6925 3.625 35.1875 C3.27885864 32.67797511 2.87341699 31.43591699 1.0625 29.625 C-1.09776436 28.35099794 -2.89202835 27.6504706 -5.25 26.875 C-9.83603721 25.25488592 -12.22920765 22.87037885 -15.375 19.1875 C-16.61034045 15.48147865 -16.83028745 13.08996386 -16.375 9.1875 C-12.20598412 2.43831142 -7.91399766 -0.10146151 0 0 Z " fill="#F2F2F2" transform="translate(386.375,400.8125)"/>
<path d="M0 0 C1.11761719 0.00644531 2.23523438 0.01289063 3.38671875 0.01953125 C6.3125 0.1875 6.3125 0.1875 9.3125 1.1875 C9.3125 4.1575 9.3125 7.1275 9.3125 10.1875 C8.673125 10.0225 8.03375 9.8575 7.375 9.6875 C1.76367985 8.7713661 -2.84406978 8.29992249 -8.0625 10.8125 C-11.45809789 13.88470762 -13.3056298 16.53562363 -13.96875 21.140625 C-14.22207991 26.6716614 -12.75926851 30.68411305 -9.1875 35 C-5.29903658 38.07836688 -0.36885775 37.40066165 4.3125 37.1875 C7.20336974 36.76299372 7.20336974 36.76299372 9.3125 36.1875 C9.3125 38.8275 9.3125 41.4675 9.3125 44.1875 C3.47308627 47.81545259 -4.67916221 46.92702279 -11.20703125 45.72265625 C-17.47049794 43.69870621 -20.27926593 39.56692999 -23.5 34.125 C-26.00595571 27.64408007 -25.97955095 19.17837617 -23.1875 12.8125 C-17.88242182 3.93307837 -10.22231405 -0.13059867 0 0 Z " fill="#F4F4F4" transform="translate(96.6875,400.8125)"/>
<path d="M0 0 C3.65999998 2.96756755 5.0791667 5.75582221 5.59765625 10.46484375 C5.7847139 16.39375781 5.1025739 20.64361144 2.3125 25.875 C1.6525 25.875 0.9925 25.875 0.3125 25.875 C0.3125 26.535 0.3125 27.195 0.3125 27.875 C-3.32532632 29.08760877 -5.86485999 29.27044552 -9.6875 28.875 C-13.42884758 25.96506299 -15.24041446 23.3310035 -16.6875 18.875 C-17.0234375 15.71875 -17.0234375 15.71875 -17.0625 12.375 C-17.09085937 11.2715625 -17.11921875 10.168125 -17.1484375 9.03125 C-16.59169409 5.2189731 -15.32922393 3.62022431 -12.6875 0.875 C-8.62521491 -1.96859956 -4.49807159 -1.88291369 0 0 Z " fill="#323232" transform="translate(308.6875,410.125)"/>
<path d="M0 0 C3.49169592 3.17426902 4.40899074 5.93047585 4.75 10.5 C4.66923911 15.80819326 4.58835387 20.87753798 1.75 25.5 C-1.94033225 28.37025842 -4.61800553 28.99276537 -9.25 28.5 C-13.38063044 26.87302128 -14.68189191 24.84805337 -16.484375 20.9140625 C-18.10695624 15.79796451 -18.26713842 10.40610977 -16.484375 5.3125 C-15.1448986 2.76111639 -13.66486568 0.81806369 -11.375 -0.9375 C-6.96611371 -2.10455814 -4.17030807 -1.92475757 0 0 Z " fill="#303030" transform="translate(181.25,410.5)"/>
<path d="M0 0 C2.57385205 -0.2773676 4.87031753 -0.37287588 7.4375 -0.3125 C8.11876953 -0.31572266 8.80003906 -0.31894531 9.50195312 -0.32226562 C13.19980816 -0.28242585 14.85171631 -0.0988558 18 2 C18.29209404 4.46840328 18.38901653 6.68614674 18.35644531 9.15600586 C18.35951187 10.26112267 18.35951187 10.26112267 18.36264038 11.38856506 C18.36565542 13.83090811 18.34714844 16.27258061 18.328125 18.71484375 C18.32506816 20.40873548 18.32319147 22.10262972 18.32244873 23.79652405 C18.31784093 27.35004263 18.30339834 30.90333519 18.28125 34.45678711 C18.2529888 39.01446497 18.2420411 43.57196449 18.2375679 48.12972164 C18.23341236 51.62897023 18.22359338 55.12818266 18.21169281 58.6274128 C18.20599025 60.30795566 18.20123149 61.98850199 18.19742584 63.66905022 C18.19055768 66.01762881 18.17692197 68.36606616 18.16113281 70.71459961 C18.16001495 71.41132782 18.15889709 72.10805603 18.15774536 72.82589722 C18.13097236 75.82997469 17.95846282 78.12461153 17 81 C-2.14 81 -21.28 81 -41 81 C-42.57977708 77.84044583 -42.18447084 74.46536183 -42.1875 71 C-42.19974609 70.26265625 -42.21199219 69.5253125 -42.22460938 68.765625 C-42.22987395 66.84229942 -42.12203447 64.91945737 -42 63 C-40 61 -40 61 -36.28466797 60.77294922 C-34.68713948 60.77326649 -33.08958973 60.78460018 -31.4921875 60.8046875 C-30.23125778 60.80893234 -30.23125778 60.80893234 -28.94485474 60.81326294 C-26.25475954 60.8244757 -23.5649949 60.84958197 -20.875 60.875 C-19.05339022 60.8850284 -17.23177523 60.89415449 -15.41015625 60.90234375 C-10.93997642 60.92441858 -6.47004429 60.95895566 -2 61 C-2.00444122 60.28003342 -2.00888245 59.56006683 -2.01345825 58.81828308 C-2.05352322 52.03509668 -2.08397843 45.25192795 -2.10362434 38.46865368 C-2.11406404 34.98124839 -2.12822649 31.49394084 -2.15087891 28.0065918 C-2.17675512 23.99787454 -2.18647123 19.98926003 -2.1953125 15.98046875 C-2.20563507 14.72727341 -2.21595764 13.47407806 -2.22659302 12.1829071 C-2.22681961 10.44144157 -2.22681961 10.44144157 -2.22705078 8.66479492 C-2.231492 7.64109299 -2.23593323 6.61739105 -2.24050903 5.56266785 C-2 3 -2 3 0 0 Z M1 2 C-3.43581257 6.43581257 -1.12601177 24.58004053 -1.13787842 30.73840332 C-1.13710329 32.51115069 -1.13459191 34.28389812 -1.13037109 36.05664062 C-1.12492459 38.78781471 -1.1303966 41.51883032 -1.13671875 44.25 C-1.13605931 45.99479203 -1.13478095 47.73958396 -1.1328125 49.484375 C-1.13483673 50.2967865 -1.13686096 51.109198 -1.13894653 51.94622803 C-1.12522186 55.22129381 -1.043007 57.870979 0 61 C-1.66554932 61.08302368 -1.66554932 61.08302368 -3.36474609 61.16772461 C-7.4761478 61.37384446 -11.58723076 61.58580921 -15.69824219 61.79956055 C-17.47908485 61.89133144 -19.26001044 61.98150739 -21.04101562 62.07006836 C-23.59789018 62.19748499 -26.15441369 62.33059534 -28.7109375 62.46484375 C-29.50994476 62.50343002 -30.30895203 62.5420163 -31.13217163 62.58177185 C-35.19806764 62.72036579 -35.19806764 62.72036579 -39 64 C-39.50845453 66.74642213 -39.50845453 66.74642213 -39.6875 69.9375 C-39.77386719 71.01902344 -39.86023438 72.10054688 -39.94921875 73.21484375 C-40.21442163 75.95736048 -40.21442163 75.95736048 -39 78 C-33.3986805 78.98304266 -27.89753934 79.147894 -22.22265625 79.1328125 C-21.41187119 79.13376923 -20.60108612 79.13472595 -19.76573181 79.13571167 C-18.06232627 79.13638779 -16.35891807 79.13457343 -14.65551758 79.13037109 C-12.07301949 79.12502179 -9.49069584 79.13033191 -6.90820312 79.13671875 C-5.24218712 79.13605773 -3.57617123 79.13477608 -1.91015625 79.1328125 C-1.15050064 79.13483673 -0.39084503 79.13686096 0.39183044 79.13894653 C5.66025489 79.11633015 10.7713065 78.65200846 16 78 C16 77.01 16 76.02 16 75 C14.68 75 13.36 75 12 75 C13 73 13 73 16 72 C16 48.9 16 25.8 16 2 C11.05 2 6.1 2 1 2 Z " fill="#D9FBFD" transform="translate(239,126)"/>
<path d="M0 0 C3.3 0 6.6 0 10 0 C10.09976706 4.39243685 10.17188558 8.78425272 10.21972656 13.17749023 C10.23969458 14.66816718 10.2668792 16.1587673 10.30175781 17.64916992 C10.68484063 34.4541118 10.68484063 34.4541118 6 41 C1.50441799 45.12123849 -2.918303 45.41125918 -8.86328125 45.23828125 C-11 45 -11 45 -13 44 C-13 41.36 -13 38.72 -13 36 C-11.7625 36.0825 -10.525 36.165 -9.25 36.25 C-6.32225477 36.44518302 -5.29170783 36.21748953 -2.90429688 34.4375 C-0.29732104 31.10057093 -0.4573649 28.81398858 -0.390625 24.609375 C-0.37408875 23.90476135 -0.35755249 23.20014771 -0.34051514 22.47418213 C-0.29208861 20.23269898 -0.27067813 17.99189387 -0.25 15.75 C-0.22183552 14.22652849 -0.19190741 12.70308848 -0.16015625 11.1796875 C-0.08633407 7.45327244 -0.03672531 3.7269862 0 0 Z " fill="#FAFAFA" transform="translate(264,402)"/>
<path d="M0 0 C0.556875 0.7425 1.11375 1.485 1.6875 2.25 C4.94090508 6.11891415 7.83372156 8.50016638 12.5 10.5 C15.89380486 11.9544878 18.24299076 13.57717369 21 16 C20.66411682 18.51912388 20.42645046 19.67196119 18.375 21.25 C12.12369829 23.22409528 7.76831291 21.56369463 2 19 C-0.64082531 18.87455314 -0.64082531 18.87455314 -3 19 C-3.43699219 17.98679687 -3.43699219 17.98679687 -3.8828125 16.953125 C-6.49386099 11.27122074 -8.38085757 7.87491008 -14 5 C-12.35 3.68 -10.7 2.36 -9 1 C-9 1.66 -9 2.32 -9 3 C-8.01 2.67 -7.02 2.34 -6 2 C-5.01 3.485 -5.01 3.485 -4 5 C-3.34 4.67 -2.68 4.34 -2 4 C-2.33 4.99 -2.66 5.98 -3 7 C-3.66 7 -4.32 7 -5 7 C-4.67 7.66 -4.34 8.32 -4 9 C-2.10134397 6.02819057 -0.64544429 3.48539917 0 0 Z " fill="#303030" transform="translate(370,417)"/>
<path d="M0 0 C0.99 0.495 0.99 0.495 2 1 C2 1.99 2 2.98 2 4 C0.96875 4.433125 -0.0625 4.86625 -1.125 5.3125 C-4.48396666 6.74912525 -7.74776178 8.33421945 -11 10 C-10.505 11.98 -10.505 11.98 -10 14 C-13.34252724 14.07427838 -15.8035914 14.06546953 -19 13 C-20.32 13 -21.64 13 -23 13 C-23 13.66 -23 14.32 -23 15 C-34.50722022 18.04941336 -34.50722022 18.04941336 -39.6875 18.625 C-42.84133079 18.63363845 -42.84133079 18.63363845 -44 20 C-46.10352941 20.10061101 -48.21047306 20.13081919 -50.31640625 20.1328125 C-52.28903442 20.13571289 -52.28903442 20.13571289 -54.30151367 20.13867188 C-55.72184383 20.13456705 -57.14217272 20.13000193 -58.5625 20.125 C-59.26952057 20.12411377 -59.97654114 20.12322754 -60.70498657 20.12231445 C-69.89293571 20.10868773 -79.03676522 19.95256163 -88.19921875 19.21875 C-90.46043189 19.042142 -92.73190052 19 -95 19 C-95.598125 18.38125 -96.19625 17.7625 -96.8125 17.125 C-99.67644072 14.34288615 -102.14170458 13.91552773 -106 13 C-112.5622449 11.33163265 -112.5622449 11.33163265 -115.0625 9.4375 C-117.61026774 7.54722071 -119.89069742 7.35332984 -123 7 C-123 5.68 -123 4.36 -123 3 C-119.13247627 4.14980435 -115.5719393 5.64810998 -111.9375 7.375 C-105.79169739 10.20639958 -99.52007745 12.21733082 -93 14 C-92.14809082 14.25370361 -91.29618164 14.50740723 -90.41845703 14.76879883 C-82.45691284 16.99371765 -74.99423313 17.50625118 -66.75 17.4375 C-65.44313232 17.42847656 -64.13626465 17.41945313 -62.78979492 17.41015625 C-40.92781117 17.10175601 -19.96551954 13.3683696 -1.64648438 0.85327148 C-1.10314453 0.57169189 -0.55980469 0.2901123 0 0 Z " fill="#2799BE" transform="translate(299,290)"/>
<path d="M0 0 C0.33 0 0.66 0 1 0 C1 3.3 1 6.6 1 10 C1.66 10 2.32 10 3 10 C3.38671875 10.81984375 3.7734375 11.6396875 4.171875 12.484375 C4.69265625 13.56203125 5.2134375 14.6396875 5.75 15.75 C6.26046875 16.81734375 6.7709375 17.8846875 7.296875 18.984375 C8.92485639 21.86694755 10.54844908 23.80426309 13 26 C11.02 26.99 11.02 26.99 9 28 C8.67 27.34 8.34 26.68 8 26 C7.67 26.99 7.34 27.98 7 29 C6.01 28.67 5.02 28.34 4 28 C4 27.34 4 26.68 4 26 C3.34 26 2.68 26 2 26 C2 26.66 2 27.32 2 28 C-1.96 28 -5.92 28 -10 28 C-10 27.67 -10 27.34 -10 27 C-6.7 26.67 -3.4 26.34 0 26 C-1.41315701 23.76854054 -2.83037642 21.53984045 -4.25 19.3125 C-4.84361328 18.37374023 -4.84361328 18.37374023 -5.44921875 17.41601562 C-7.78056537 13.76612051 -10.22119856 10.33328705 -13 7 C-12.21625 6.566875 -11.4325 6.13375 -10.625 5.6875 C-7.78301625 4.10779753 -7.78301625 4.10779753 -6 1 C-5.34 1 -4.68 1 -4 1 C-4 1.66 -4 2.32 -4 3 C-2.68 2.67 -1.36 2.34 0 2 C0 1.34 0 0.68 0 0 Z " fill="#2D2D2D" transform="translate(151,419)"/>
<path d="M0 0 C0.33 0.66 0.66 1.32 1 2 C0.0625 4.625 0.0625 4.625 -1 7 C-1.66 7 -2.32 7 -3 7 C-3 8.32 -3 9.64 -3 11 C-3.66 11 -4.32 11 -5 11 C-5.1546875 12.051875 -5.1546875 12.051875 -5.3125 13.125 C-6.25521902 17.06727954 -8.04625767 20.41042945 -10.125 23.875 C-11.02448528 26.05946424 -11.25605121 27.78645642 -11.5 30.125 C-12 34 -12 34 -14 36 C-14.31113938 38.22597776 -14.31113938 38.22597776 -14.265625 40.8125 C-14.26973389 41.79734375 -14.27384277 42.7821875 -14.27807617 43.796875 C-14.26881104 44.85390625 -14.2595459 45.9109375 -14.25 47 C-14.24395752 48.07765625 -14.23791504 49.1553125 -14.23168945 50.265625 C-14.15094639 56.87383343 -13.88045293 63.42684646 -13.1875 70 C-13.11756836 70.69738281 -13.04763672 71.39476562 -12.97558594 72.11328125 C-12.23009925 78.23161823 -10.34789919 84.76890751 -7 90 C-6.01 90.33 -5.02 90.66 -4 91 C-3.938125 92.0725 -3.87625 93.145 -3.8125 94.25 C-3.33854041 98.13531961 -3.33854041 98.13531961 -0.4375 100.4375 C0.366875 100.953125 1.17125 101.46875 2 102 C1.34 103.32 0.68 104.64 0 106 C-15.20865514 86.06676264 -20.64484393 62.20345814 -17.4765625 37.484375 C-15.43136449 24.86908306 -9.56585615 8.80951045 0 0 Z " fill="#2399BF" transform="translate(169,134)"/>
<path d="M0 0 C0.33 0 0.66 0 1 0 C1.06941159 10.13535144 1.12276615 20.27064664 1.15543652 30.40618706 C1.17111411 35.11218517 1.19239036 39.81802105 1.22631836 44.52392578 C1.25883745 49.0626498 1.27683723 53.60121748 1.28463173 58.14004898 C1.29018868 59.87447701 1.30103963 61.60889617 1.31719017 63.3432579 C1.33886587 65.76662658 1.34197113 68.18934347 1.34057617 70.61279297 C1.351362 71.33496002 1.36214783 72.05712708 1.3732605 72.80117798 C1.36076355 74.79830933 1.36076355 74.79830933 1 78 C-2.4468577 80.29790514 -3.70118952 80.24434461 -7.7565918 80.22705078 C-8.93758957 80.22689972 -10.11858734 80.22674866 -11.33537292 80.22659302 C-12.61044205 80.21627045 -13.88551117 80.20594788 -15.19921875 80.1953125 C-16.50454056 80.1924826 -17.80986237 80.18965271 -19.15473938 80.18673706 C-22.62195515 80.17910747 -26.08900288 80.15946493 -29.55615234 80.1373291 C-33.09535448 80.11685605 -36.63458382 80.10773223 -40.17382812 80.09765625 C-47.11595437 80.0762183 -54.05796911 80.04209056 -61 80 C-61 78.68 -61 77.36 -61 76 C-61.66 76 -62.32 76 -63 76 C-64.04167441 71.90274731 -63.94409525 68.38504776 -63.5625 64.1875 C-63.46066406 63.02605469 -63.35882813 61.86460937 -63.25390625 60.66796875 C-63.12822266 59.34732422 -63.12822266 59.34732422 -63 58 C-60.525 57.505 -60.525 57.505 -58 57 C-58.33 57.99 -58.66 58.98 -59 60 C-59 65.94 -59 71.88 -59 78 C-39.86 78 -20.72 78 -1 78 C-0.67 52.26 -0.34 26.52 0 0 Z " fill="#3EA5BE" transform="translate(257,129)"/>
<path d="M0 0 C0.66 0 1.32 0 2 0 C5.38331888 5.30053291 6.82483425 9.86777146 8 16 C8.33 17.258125 8.66 18.51625 9 19.8125 C11.52977467 29.97759459 12.29433949 39.79097647 12.1875 50.25 C12.18685547 51.46429688 12.18621094 52.67859375 12.18554688 53.9296875 C12.15558604 60.04169794 11.93929732 65.95843964 11 72 C12.32 72.33 13.64 72.66 15 73 C13.515 73.495 13.515 73.495 12 74 C9.61722613 78.26659082 8.60084728 83.19322179 8 88 C7.34 88 6.68 88 6 88 C5.24591837 95.26720598 5.24591837 95.26720598 5.0625 102.5625 C5 105 5 105 3 107 C3 106.01 3 105.02 3 104 C2.01 104 1.02 104 0 104 C-0.144375 104.61875 -0.28875 105.2375 -0.4375 105.875 C-1 108 -1 108 -2 110 C-2.66 110 -3.32 110 -4 110 C-2.56843902 105.52037856 -0.87278372 101.21415333 0.9375 96.875 C7.07015662 81.78065592 9.38080323 66.31675796 9.25 50.0625 C9.24250732 48.83120361 9.23501465 47.59990723 9.22729492 46.33129883 C9.05646759 31.93504033 7.55718098 17.77642527 0.84375 4.7578125 C0 3 0 3 0 0 Z " fill="#389FBD" transform="translate(347,136)"/>
<path d="M0 0 C2.54443858 2.31380234 4.61649242 4.67938986 6.671875 7.4296875 C3.7455997 6.11790892 1.91898266 4.67679516 -0.328125 2.4296875 C-1.65212068 1.74466365 -2.9872708 1.08109539 -4.328125 0.4296875 C-5.91565649 -0.43767242 -7.4989489 -1.31283174 -9.078125 -2.1953125 C-9.87734375 -2.64132813 -10.6765625 -3.08734375 -11.5 -3.546875 C-12.10328125 -3.88460937 -12.7065625 -4.22234375 -13.328125 -4.5703125 C-13.328125 -5.2303125 -13.328125 -5.8903125 -13.328125 -6.5703125 C-14.978125 -6.9003125 -16.628125 -7.2303125 -18.328125 -7.5703125 C-18.328125 -8.2303125 -18.328125 -8.8903125 -18.328125 -9.5703125 C-21.298125 -9.9003125 -24.268125 -10.2303125 -27.328125 -10.5703125 C-27.328125 -11.2303125 -27.328125 -11.8903125 -27.328125 -12.5703125 C-28.84842742 -12.88538524 -30.369401 -13.19721982 -31.890625 -13.5078125 C-32.73753906 -13.68183594 -33.58445312 -13.85585937 -34.45703125 -14.03515625 C-54.15075236 -17.70595869 -75.6629896 -17.02011091 -93.328125 -6.5703125 C-93.658125 -5.9103125 -93.988125 -5.2503125 -94.328125 -4.5703125 C-99.75120192 -1.5703125 -99.75120192 -1.5703125 -102.328125 -1.5703125 C-102.328125 -0.9103125 -102.328125 -0.2503125 -102.328125 0.4296875 C-103.978125 0.7596875 -105.628125 1.0896875 -107.328125 1.4296875 C-100.96036524 -8.3436708 -85.87101601 -14.04590318 -74.92822266 -16.76538086 C-48.40392394 -22.32319413 -21.28508844 -16.90922001 0 0 Z " fill="#309BBB" transform="translate(290.328125,119.5703125)"/>
<path d="M0 0 C0.66 0.33 1.32 0.66 2 1 C1.47156494 1.50748779 0.94312988 2.01497559 0.39868164 2.5378418 C-19.43787947 21.69075656 -35.05901608 42.45543819 -41 70 C-41.33 70 -41.66 70 -42 70 C-42.38445177 63.72062103 -41.7194917 59.65654273 -39 54 C-38.30859478 51.22111387 -38.30859478 51.22111387 -38 49 C-37.34 49 -36.68 49 -36 49 C-35.896875 48.113125 -35.79375 47.22625 -35.6875 46.3125 C-34.97546061 42.88176473 -33.8379749 40.94075984 -32 38 C-31.67 36.948125 -31.34 35.89625 -31 34.8125 C-30 32 -30 32 -27 30 C-25.79549696 27.44816596 -25.79549696 27.44816596 -25 25 C-24.01 25 -23.02 25 -22 25 C-22 23.02 -22 21.04 -22 19 C-20.35 18.67 -18.7 18.34 -17 18 C-17.33 16.68 -17.66 15.36 -18 14 C-17.34 14 -16.68 14 -16 14 C-15.67 13.34 -15.34 12.68 -15 12 C-14.34 11.690625 -13.68 11.38125 -13 11.0625 C-10.65391779 10.1108154 -10.65391779 10.1108154 -10 7 C-9.360625 6.855625 -8.72125 6.71125 -8.0625 6.5625 C-7.381875 6.376875 -6.70125 6.19125 -6 6 C-5.3162955 4.67532254 -4.65035814 3.34136367 -4 2 C-2 0.6875 -2 0.6875 0 0 Z " fill="#1E98BB" transform="translate(160,90)"/>
<path d="M0 0 C1.24743257 3.7422977 0.59628847 6.11815445 0 10 C-1.07476313 34.37635028 -0.37174472 58.19923869 11.11279297 80.25585938 C12.22787772 82.44797976 13.13688645 84.69836387 14 87 C12.68 86.67 11.36 86.34 10 86 C10 84.35 10 82.7 10 81 C9.34 81 8.68 81 8 81 C7.87625 80.195625 7.7525 79.39125 7.625 78.5625 C7.41875 77.716875 7.2125 76.87125 7 76 C6.34 75.67 5.68 75.34 5 75 C3.11518082 69.46334365 2.08538673 63.73869366 1 58 C0.34 58 -0.32 58 -1 58 C-4.76012853 50.47974294 -3.19232578 38.94095787 -3.1875 30.75 C-3.18741943 29.47543945 -3.18733887 28.20087891 -3.18725586 26.88769531 C-3.04267603 3.04267603 -3.04267603 3.04267603 0 0 Z " fill="#299BBC" transform="translate(117,160)"/>
<path d="M0 0 C2.70458826 2.62504154 5.11142016 5.14284636 7.4375 8.125 C14.13181038 16.07449357 23.57092611 22.03613418 32 28 C31.01 28.33 30.02 28.66 29 29 C27.66073801 28.00795408 26.32901064 27.00573778 25 26 C22.36776016 24.87334072 19.70532411 23.94686344 17 23 C17 23.66 17 24.32 17 25 C15.02 25 13.04 25 11 25 C11 24.01 11 23.02 11 22 C10.443125 21.95875 9.88625 21.9175 9.3125 21.875 C5.705605 20.51022892 4.26961504 18.08919824 2 15 C2 14.34 2 13.68 2 13 C4.97 13.495 4.97 13.495 8 14 C8 14.99 8 15.98 8 17 C8.66 17 9.32 17 10 17 C10 17.66 10 18.32 10 19 C10.99 19 11.98 19 13 19 C13.33 19.66 13.66 20.32 14 21 C14.99 21.33 15.98 21.66 17 22 C17 21.34 17 20.68 17 20 C16.4225 19.773125 15.845 19.54625 15.25 19.3125 C12.41025155 17.65598007 10.98500033 15.60531294 9 13 C6.57482454 10.35435405 5.43760767 9.14586922 2 8 C1.26953125 6.15234375 1.26953125 6.15234375 0.8125 3.9375 C0.65394531 3.20402344 0.49539062 2.47054688 0.33203125 1.71484375 C0.22246094 1.14894531 0.11289063 0.58304687 0 0 Z " fill="#059EC5" transform="translate(142,263)"/>
<path d="M0 0 C1.98 0.99 1.98 0.99 4 2 C4 2.99 4 3.98 4 5 C4.66 5 5.32 5 6 5 C6 6.32 6 7.64 6 9 C6.66 9 7.32 9 8 9 C8.52992692 10.45505358 9.0486789 11.91418127 9.5625 13.375 C9.85253906 14.18710938 10.14257812 14.99921875 10.44140625 15.8359375 C11 18 11 18 10 20 C10.66 20 11.32 20 12 20 C12.103125 21.11375 12.20625 22.2275 12.3125 23.375 C12.539375 24.57125 12.76625 25.7675 13 27 C13.99 27.66 14.98 28.32 16 29 C16.37231445 31.9140625 16.37231445 31.9140625 16.36328125 35.625 C16.36377975 36.28653076 16.36427826 36.94806152 16.36479187 37.62963867 C16.36244833 39.03518665 16.35270317 40.44073858 16.33618164 41.84619141 C16.31289292 43.96426499 16.31557981 46.08105233 16.32226562 48.19921875 C16.2811046 68.7188954 16.2811046 68.7188954 10 75 C10.91848164 69.33602987 10.91848164 69.33602987 11.51171875 66.890625 C14.95949657 51.53456493 13.79837603 35.86969274 9 21 C8.76152344 20.23945313 8.52304687 19.47890625 8.27734375 18.6953125 C6.05300761 12.27537226 2.89190175 6.1394419 0 0 Z " fill="#E2FCFE" transform="translate(308,139)"/>
<path d="M0 0 C-0.99 1.32 -1.98 2.64 -3 4 C-2.443125 4.04125 -1.88625 4.0825 -1.3125 4.125 C2.13938389 5.43111823 3.67017044 8.20420453 6 11 C8.10332891 11.71447643 8.10332891 11.71447643 10 12 C10.99 13.485 10.99 13.485 12 15 C14.55183404 16.20450304 14.55183404 16.20450304 17 17 C17 18.32 17 19.64 17 21 C17.99 21 18.98 21 20 21 C20.33 22.65 20.66 24.3 21 26 C21.99 26.33 22.98 26.66 24 27 C24.6875 29.0625 24.6875 29.0625 25 31 C25.66 31 26.32 31 27 31 C31.40542376 35.56276033 34.09205711 41.42505806 37 47 C37.40992188 47.68964844 37.81984375 48.37929687 38.2421875 49.08984375 C39.18000656 51.45372787 38.84089584 52.64549166 38 55 C37.53851563 54.06800781 37.07703125 53.13601562 36.6015625 52.17578125 C31.92629896 42.9566775 26.55837799 34.97249345 20 27 C19.47792969 26.32453125 18.95585937 25.6490625 18.41796875 24.953125 C13.03855286 18.1939742 5.88635593 12.93655927 -1.1875 8.0625 C-2.115625 7.381875 -3.04375 6.70125 -4 6 C-4 5.34 -4 4.68 -4 4 C-5.2065625 3.814375 -5.2065625 3.814375 -6.4375 3.625 C-7.283125 3.41875 -8.12875 3.2125 -9 3 C-9.33 2.34 -9.66 1.68 -10 1 C-3.375 -1.125 -3.375 -1.125 0 0 Z " fill="#3AA3BB" transform="translate(308,81)"/>
<path d="M0 0 C3.69628969 -0.21742881 6.45781172 -0.20764658 9.9375 1.125 C12 3 12 3 12.4375 6 C12 9 12 9 10 12 C6.52674819 13.1577506 3.63932552 13.06866652 0 13 C0 8.71 0 4.42 0 0 Z " fill="#3A3A3A" transform="translate(125,409)"/>
<path d="M0 0 C2.52748246 1.26374123 2.7343939 2.27205914 3.875 4.8125 C5.47896713 8.17118306 7.13848899 10.54727628 10 13 C8.02 13.99 8.02 13.99 6 15 C5.67 14.34 5.34 13.68 5 13 C4.67 13.99 4.34 14.98 4 16 C3.01 15.67 2.02 15.34 1 15 C1 14.34 1 13.68 1 13 C0.34 13 -0.32 13 -1 13 C-1 13.66 -1 14.32 -1 15 C-4.96 15 -8.92 15 -13 15 C-13 14.67 -13 14.34 -13 14 C-9.7 13.67 -6.4 13.34 -3 13 C-4.98 9.535 -4.98 9.535 -7 6 C-6.34 6 -5.68 6 -5 6 C-5.33 5.01 -5.66 4.02 -6 3 C-5.34 3 -4.68 3 -4 3 C-3.67 2.34 -3.34 1.68 -3 1 C-3 1.66 -3 2.32 -3 3 C-2.01 2.01 -1.02 1.02 0 0 Z " fill="#393939" transform="translate(154,432)"/>
<path d="M0 0 C0.66 0.33 1.32 0.66 2 1 C2 1.99 2 2.98 2 4 C0.96875 4.433125 -0.0625 4.86625 -1.125 5.3125 C-4.48396666 6.74912525 -7.74776178 8.33421945 -11 10 C-10.505 11.98 -10.505 11.98 -10 14 C-13.34252724 14.07427838 -15.8035914 14.06546953 -19 13 C-20.32 13 -21.64 13 -23 13 C-23 13.66 -23 14.32 -23 15 C-32.49613298 18.02149686 -41.16256984 18.33706931 -51 18 C-51 17.67 -51 17.34 -51 17 C-50.37246826 16.92072266 -49.74493652 16.84144531 -49.09838867 16.75976562 C-31.82148009 14.48114611 -16.1943784 10.79202206 -1.64648438 0.85327148 C-1.10314453 0.57169189 -0.55980469 0.2901123 0 0 Z " fill="#0797C2" transform="translate(299,290)"/>
<path d="M0 0 C1.60875 -0.04125 3.2175 -0.0825 4.875 -0.125 C5.77992188 -0.14820313 6.68484375 -0.17140625 7.6171875 -0.1953125 C10 0 10 0 12 2 C12.5647482 8.21223022 12.5647482 8.21223022 10.7734375 10.7109375 C8.47695154 12.38018941 7.12026158 12.30957659 4.3125 12.1875 C2.889375 12.125625 1.46625 12.06375 0 12 C0 8.04 0 4.08 0 0 Z " fill="#3B3B3B" transform="translate(342,427)"/>
<path d="M0 0 C7.74759929 7.74759929 5.24102582 27.27885473 5.25537109 37.22338867 C5.15956209 49.61441645 3.53170387 61.13040394 0 73 C-0.33 73 -0.66 73 -1 73 C-1.32300128 66.97064285 -0.68219385 61.46718202 0.4375 55.5625 C0.639198 54.49708984 0.639198 54.49708984 0.8449707 53.41015625 C1.85678247 48.28643505 1.85678247 48.28643505 3 46 C3.15266612 44.26131256 3.24932596 42.51752499 3.31640625 40.7734375 C3.35830078 39.7421875 3.40019531 38.7109375 3.44335938 37.6484375 C3.48267578 36.56820312 3.52199219 35.48796875 3.5625 34.375 C3.62727539 32.74304688 3.62727539 32.74304688 3.69335938 31.078125 C3.7996453 28.3855483 3.90168057 25.69287747 4 23 C3.34 23 2.68 23 2 23 C-0.29612756 7.25512528 -0.29612756 7.25512528 0 0 Z " fill="#D7FBFE" transform="translate(352,152)"/>
<path d="M0 0 C0.33 0 0.66 0 1 0 C1.31442356 3.54149854 1.62612676 7.08323208 1.9375 10.625 C2.0310376 11.67792236 2.1245752 12.73084473 2.22094727 13.81567383 C3.01412313 22.85565803 3.01412313 22.85565803 3.25 27.22265625 C3.61057691 33.88581698 4.59093693 39.85662111 6.3671875 46.2890625 C7.22755863 49.97484993 7.21725997 53.2341606 7 57 C-3.47921267 41.28118099 -0.22915083 18.05003462 0 0 Z " fill="#D9FAFC" transform="translate(116,170)"/>
<path d="M0 0 C1.17755859 -0.00773437 1.17755859 -0.00773437 2.37890625 -0.015625 C4.4375 0.25 4.4375 0.25 6.4375 2.25 C6.1075 2.58 5.7775 2.91 5.4375 3.25 C6.4275 3.91 7.4175 4.57 8.4375 5.25 C7.7775 5.91 7.1175 6.57 6.4375 7.25 C6.1075 7.25 5.7775 7.25 5.4375 7.25 C5.4375 7.91 5.4375 8.57 5.4375 9.25 C4.7775 9.25 4.1175 9.25 3.4375 9.25 C3.4375 10.24 3.4375 11.23 3.4375 12.25 C-4.85165663 10.17771084 -4.85165663 10.17771084 -7.5625 7.25 C-8 4.6875 -8 4.6875 -7.5625 2.25 C-4.42838698 0.16059132 -3.58799528 -0.02364412 0 0 Z " fill="#3A3A3A" transform="translate(388.5625,408.75)"/>
<path d="M0 0 C4.86896303 0.59619955 9.32790951 1.56976822 14 3 C14.66 2.34 15.32 1.68 16 1 C19.2578125 0.8046875 19.2578125 0.8046875 23.125 0.875 C25.04699219 0.90207031 25.04699219 0.90207031 27.0078125 0.9296875 C28.48894531 0.96449219 28.48894531 0.96449219 30 1 C29.1953125 2.953125 29.1953125 2.953125 28 5 C24.875 5.75 24.875 5.75 22 6 C23.32 7.32 24.64 8.64 26 10 C17.57418402 9.70945462 7.53992138 7.02107322 1.0859375 1.3046875 C0.72757813 0.87414062 0.36921875 0.44359375 0 0 Z " fill="#169DC4" transform="translate(194,261)"/>
<path d="M0 0 C0.33 0 0.66 0 1 0 C1 13.86 1 27.72 1 42 C0.01 41.01 -0.98 40.02 -2 39 C-2 38.34 -2 37.68 -2 37 C-2.66 36.67 -3.32 36.34 -4 36 C-3.505 35.505 -3.505 35.505 -3 35 C-2.67671463 29.86546765 -2.93343458 25.0280941 -4 20 C-3.505 18.515 -3.505 18.515 -3 17 C-2.82512294 15.23179863 -2.68264566 13.46026143 -2.5625 11.6875 C-2.21931289 7.51390195 -1.58582543 3.91170272 0 0 Z " fill="#272727" transform="translate(203,403)"/>
<path d="M0 0 C0.99467285 -0.00435059 1.9893457 -0.00870117 3.01416016 -0.01318359 C4.07940918 -0.00367676 5.1446582 0.00583008 6.2421875 0.015625 C7.87293213 0.02795166 7.87293213 0.02795166 9.53662109 0.04052734 C24.00113873 0.2396098 36.08181428 1.78867393 49.1171875 8.265625 C49.1171875 8.925625 49.1171875 9.585625 49.1171875 10.265625 C49.7771875 10.595625 50.4371875 10.925625 51.1171875 11.265625 C50.4571875 11.595625 49.7971875 11.925625 49.1171875 12.265625 C46.55637031 11.24009161 44.06519775 10.15277928 41.5546875 9.015625 C25.61806627 2.20298495 10.28160511 1.79861489 -6.8828125 2.265625 C-4.35890841 -0.25827909 -3.49224279 0.00882039 0 0 Z " fill="#D5FAFD" transform="translate(228.8828125,99.734375)"/>
<path d="M0 0 C0.85511683 2.47033751 1.00362993 3.97913579 0.55078125 6.58203125 C-1.81450579 21.26023095 0.56740527 35.03782459 4.65454102 49.16259766 C5 51 5 51 4 53 C1 51 1 51 0.29223633 49.05493164 C0.14036865 48.26465576 -0.01149902 47.47437988 -0.16796875 46.66015625 C-0.42477417 45.32621826 -0.42477417 45.32621826 -0.68676758 43.96533203 C-0.85200928 43.00739746 -1.01725098 42.04946289 -1.1875 41.0625 C-1.36112061 40.0813623 -1.53474121 39.10022461 -1.71362305 38.08935547 C-3.69905818 25.98960498 -3.68305986 14.12350437 -2 2 C-1.34 2 -0.68 2 0 2 C0 1.34 0 0.68 0 0 Z " fill="#D6FDFF" transform="translate(152,166)"/>
<path d="M0 0 C0.33 0 0.66 0 1 0 C0.8583467 2.87526069 0.71181468 5.75013536 0.5625 8.625 C0.50352539 9.83736328 0.50352539 9.83736328 0.44335938 11.07421875 C0.21203918 15.45150865 -0.16920917 19.68547281 -1 24 C-1.66 24 -2.32 24 -3 24 C-3.75408163 31.26720598 -3.75408163 31.26720598 -3.9375 38.5625 C-4 41 -4 41 -6 43 C-6 42.01 -6 41.02 -6 40 C-6.99 40 -7.98 40 -9 40 C-9.2165625 40.928125 -9.2165625 40.928125 -9.4375 41.875 C-10 44 -10 44 -11 46 C-11.66 46 -12.32 46 -13 46 C-11.56843902 41.52037856 -9.87278372 37.21415333 -8.0625 32.875 C-3.71448859 22.17321374 -1.56707304 11.43041509 0 0 Z " fill="#1B98C7" transform="translate(356,200)"/>
<path d="M0 0 C2.95409701 1.37154504 5.44008376 2.98863724 8 5 C7.66411682 7.51912388 7.42645046 8.67196119 5.375 10.25 C0.25037361 11.86830307 -4.21755785 11.31875983 -9 9 C-8.21625 8.401875 -7.4325 7.80375 -6.625 7.1875 C-3.85425677 5.08914751 -3.85425677 5.08914751 -2 2 C-1.34 1.67 -0.68 1.34 0 1 C0 0.67 0 0.34 0 0 Z " fill="#3A3A3A" transform="translate(383,428)"/>
<path d="M0 0 C7.37042925 -0.36248013 7.37042925 -0.36248013 10.0625 1.1875 C11 3 11 3 10.8125 5.5625 C10 8 10 8 8 10 C5.31160615 10.26991906 2.70858064 10.08737357 0 10 C0 6.7 0 3.4 0 0 Z " fill="#484848" transform="translate(342,409)"/>
<path d="M0 0 C0.99 0.33 1.98 0.66 3 1 C-1.70019474 6.93708809 -6.98034672 11.43062623 -13 16 C-13.71929687 16.57234375 -14.43859375 17.1446875 -15.1796875 17.734375 C-17 19 -17 19 -19 19 C-19 18.01 -19 17.02 -19 16 C-18.34 16 -17.68 16 -17 16 C-17.66 15.34 -18.32 14.68 -19 14 C-19 12.68 -19 11.36 -19 10 C-18.34 10 -17.68 10 -17 10 C-17 9.01 -17 8.02 -17 7 C-15.68 7 -14.36 7 -13 7 C-12.67 7.99 -12.34 8.98 -12 10 C-10.68 10 -9.36 10 -8 10 C-7.67 8.68 -7.34 7.36 -7 6 C-5.68 6 -4.36 6 -3 6 C-2.67 4.68 -2.34 3.36 -2 2 C-1.34 2 -0.68 2 0 2 C0 1.34 0 0.68 0 0 Z " fill="#E6FCFB" transform="translate(323,268)"/>
<path d="M0 0 C1.32 0 2.64 0 4 0 C6.25 2.5 6.25 2.5 8 5 C0.01428934 12.98571066 -14.79081631 11.11223481 -25.203125 11.1328125 C-28.90476174 11.00333138 -32.35182439 10.59542763 -36 10 C-36 9.67 -36 9.34 -36 9 C-35.44650879 9.01047363 -34.89301758 9.02094727 -34.32275391 9.03173828 C-20.010381 9.46108361 -20.010381 9.46108361 -6 7 C-5.67 6.34 -5.34 5.68 -5 5 C-2.03 5 0.94 5 4 5 C2.68 4.34 1.36 3.68 0 3 C0 2.01 0 1.02 0 0 Z " fill="#2E9EC0" transform="translate(256,262)"/>
<path d="M0 0 C16.5 0 33 0 50 0 C50 0.33 50 0.66 50 1 C40.0814036 2.68900846 30.56549462 3.310514 20.5 3.25 C18.52386719 3.26160156 18.52386719 3.26160156 16.5078125 3.2734375 C14.60128906 3.26957031 14.60128906 3.26957031 12.65625 3.265625 C11.51994141 3.26336914 10.38363281 3.26111328 9.21289062 3.25878906 C5.85866703 2.98861604 3.13508539 2.1931334 0 1 C0 0.67 0 0.34 0 0 Z " fill="#C8F5FA" transform="translate(212,305)"/>
<path d="M0 0 C0.33 0.66 0.66 1.32 1 2 C-0.25 4.625 -0.25 4.625 -2 7 C-2.99 7 -3.98 7 -5 7 C-5 8.65 -5 10.3 -5 12 C-6.98 12.66 -8.96 13.32 -11 14 C-11.33 15.65 -11.66 17.3 -12 19 C-12.66 19 -13.32 19 -14 19 C-14.66 20.98 -15.32 22.96 -16 25 C-16.66 25 -17.32 25 -18 25 C-18.33 25.99 -18.66 26.98 -19 28 C-19.66 28 -20.32 28 -21 28 C-19.66933628 23.14998524 -17.53327906 19.58042748 -14.4375 15.6875 C-13.78128662 14.84699097 -13.78128662 14.84699097 -13.11181641 13.98950195 C-9.10870146 8.95358047 -4.69922576 4.39275451 0 0 Z " fill="#D3F6FB" transform="translate(153,99)"/>
<path d="M0 0 C11.64402235 -0.66737986 21.53023208 6.64667944 30.2578125 13.53515625 C32.84241268 15.858351 34.9275462 18.21854885 37 21 C34.0737247 19.68822142 32.24710766 18.24710766 30 16 C28.67600432 15.31497615 27.3408542 14.65140789 26 14 C24.41246851 13.13264008 22.8291761 12.25748076 21.25 11.375 C20.45078125 10.92898437 19.6515625 10.48296875 18.828125 10.0234375 C18.22484375 9.68570313 17.6215625 9.34796875 17 9 C17 8.34 17 7.68 17 7 C15.35 6.67 13.7 6.34 12 6 C12 5.34 12 4.68 12 4 C9.03 3.67 6.06 3.34 3 3 C3 2.34 3 1.68 3 1 C2.01 0.67 1.02 0.34 0 0 Z " fill="#1E95B9" transform="translate(260,106)"/>
<path d="M0 0 C0.33 0 0.66 0 1 0 C1 3.3 1 6.6 1 10 C1.66 10 2.32 10 3 10 C2.67 9.01 2.34 8.02 2 7 C2.27571139 4.99124558 2.60235737 2.98821313 3 1 C3.33 1 3.66 1 4 1 C4.22786458 3.01822917 4.45572917 5.03645833 4.68359375 7.0546875 C4.91292961 9.07404316 4.91292961 9.07404316 6 11 C5.67 11.66 5.34 12.32 5 13 C4.01 12.67 3.02 12.34 2 12 C1.01 12.495 1.01 12.495 0 13 C-0.96661363 9.87819599 -0.98988909 7.47916205 -0.5625 4.25 C-0.46066406 3.45078125 -0.35882813 2.6515625 -0.25390625 1.828125 C-0.17011719 1.22484375 -0.08632812 0.6215625 0 0 Z M8 0 C8.33 0 8.66 0 9 0 C9 14.52 9 29.04 9 44 C8.67 44 8.34 44 8 44 C7.67 32.12 7.34 20.24 7 8 C6.01 8.495 6.01 8.495 5 9 C5 7.02 5 5.04 5 3 C5.99 3 6.98 3 8 3 C8 2.01 8 1.02 8 0 Z " fill="#5C5C5C" transform="translate(106,402)"/>
<path d="M0 0 C0.33 0 0.66 0 1 0 C1.12397147 4.46564301 1.21450992 8.93036439 1.2746582 13.3972168 C1.29974109 14.91529801 1.3338166 16.43325918 1.37719727 17.95092773 C1.43813293 20.13815965 1.46626895 22.32379039 1.48828125 24.51171875 C1.51446533 25.82615967 1.54064941 27.14060059 1.56762695 28.49487305 C0.85807015 32.87642443 -0.52626051 34.32454371 -4 37 C-7.20352299 37.37688506 -9.11138291 37.44430855 -12 36 C-12 38.64 -12 41.28 -12 44 C-12.33 44 -12.66 44 -13 44 C-13 41.03 -13 38.06 -13 35 C-11.02 34.505 -11.02 34.505 -9 34 C-8.67 33.01 -8.34 32.02 -8 31 C-5.9375 30.3125 -5.9375 30.3125 -4 30 C-4 30.66 -4 31.32 -4 32 C-3.01 31.67 -2.02 31.34 -1 31 C-0.67 20.77 -0.34 10.54 0 0 Z " fill="#4B4B4B" transform="translate(263,402)"/>
<path d="M0 0 C0 5.28 0 10.56 0 16 C-2.31 16.66 -4.62 17.32 -7 18 C-6.71949194 15.18596699 -6.42618696 12.37432747 -6.125 9.5625 C-6.04636719 8.76005859 -5.96773438 7.95761719 -5.88671875 7.13085938 C-5.66154237 5.07829006 -5.33777413 3.03706991 -5 1 C-3 0 -3 0 0 0 Z " fill="#343434" transform="translate(329,417)"/>
<path d="M0 0 C1.09658936 3.28976808 0.79953138 4.71303767 0 8 C-0.66 8 -1.32 8 -2 8 C-1.67 10.97 -1.34 13.94 -1 17 C-1.99 17.33 -2.98 17.66 -4 18 C-5.2065625 19.2375 -5.2065625 19.2375 -6.4375 20.5 C-8.96368997 22.96457558 -9.73096247 23.38922441 -13 24 C-12.48050781 23.10539062 -11.96101563 22.21078125 -11.42578125 21.2890625 C-7.38603659 14.29704763 -3.49230783 7.28683461 0 0 Z " fill="#CFF3F7" transform="translate(317,216)"/>
<path d="M0 0 C2.70458826 2.62504154 5.11142016 5.14284636 7.4375 8.125 C14.13181038 16.07449357 23.57092611 22.03613418 32 28 C31.01 28.33 30.02 28.66 29 29 C25.8125 27.1875 25.8125 27.1875 23 25 C23 24.34 23 23.68 23 23 C22.195625 22.71125 21.39125 22.4225 20.5625 22.125 C18 21 18 21 17 19 C16.401875 18.896875 15.80375 18.79375 15.1875 18.6875 C12.01297623 17.68979253 10.95787746 15.63089784 9 13 C6.57482454 10.35435405 5.43760767 9.14586922 2 8 C1.26953125 6.15234375 1.26953125 6.15234375 0.8125 3.9375 C0.65394531 3.20402344 0.49539062 2.47054688 0.33203125 1.71484375 C0.22246094 1.14894531 0.11289063 0.58304687 0 0 Z " fill="#379FBE" transform="translate(142,263)"/>
<path d="M0 0 C0.33 0 0.66 0 1 0 C1 4.62 1 9.24 1 14 C4.86377014 15.93188507 6.28587165 16.26101689 10.41113281 16.31884766 C11.49195129 16.33871735 12.57276978 16.35858704 13.68634033 16.37905884 C15.42714874 16.39638565 15.42714874 16.39638565 17.203125 16.4140625 C18.39605164 16.43342865 19.58897827 16.4527948 20.8180542 16.4727478 C24.62863004 16.53253267 28.4392361 16.57892527 32.25 16.625 C34.83334652 16.66318072 37.41668032 16.7022325 40 16.7421875 C46.33322046 16.83823344 52.66651749 16.92328436 59 17 C59 17.33 59 17.66 59 18 C39.86 18 20.72 18 1 18 C-0.59412284 14.81175432 -0.10174735 11.37103338 -0.0625 7.875 C-0.05798828 7.12089844 -0.05347656 6.36679688 -0.04882812 5.58984375 C-0.03703499 3.72652873 -0.01909942 1.86325445 0 0 Z " fill="#C2F9FC" transform="translate(197,189)"/>
<path d="M0 0 C0.66 0.66 1.32 1.32 2 2 C-11.31213088 24.51557939 -11.31213088 24.51557939 -22 29 C-20.83837431 25.51512292 -19.23032009 24.54535345 -16.421875 22.33203125 C-14.4754112 20.50855829 -13.8724211 18.48304467 -13 16 C-10 14 -10 14 -7 14 C-6.67 11.36 -6.34 8.72 -6 6 C-5.01 6 -4.02 6 -3 6 C-2.01 4.02 -1.02 2.04 0 0 Z " fill="#1B97BF" transform="translate(310,226)"/>
<path d="M0 0 C1 2 1 2 0.0625 5.125 C-0.4634375 6.548125 -0.4634375 6.548125 -1 8 C-1.66 8 -2.32 8 -3 8 C-3.04125 8.598125 -3.0825 9.19625 -3.125 9.8125 C-4.4390003 13.09750076 -6.88697293 13.57319593 -10 15 C-10.33 15.66 -10.66 16.32 -11 17 C-11.66 17.144375 -12.32 17.28875 -13 17.4375 C-13.66 17.623125 -14.32 17.80875 -15 18 C-15.33 18.99 -15.66 19.98 -16 21 C-17.32 20.67 -18.64 20.34 -20 20 C-19.11248047 19.22076172 -19.11248047 19.22076172 -18.20703125 18.42578125 C-11.6473692 12.63658522 -5.62124499 6.7029966 0 0 Z " fill="#2DA0BE" transform="translate(329,264)"/>
<path d="M0 0 C1.9375 0.8125 1.9375 0.8125 4 2 C4.33 2.99 4.66 3.98 5 5 C6.65 5.33 8.3 5.66 10 6 C10 7.65 10 9.3 10 11 C5.86062408 7.69984002 2.41337795 4.82675589 0 0 Z M12 0 C12.598125 0.474375 13.19625 0.94875 13.8125 1.4375 C16.00382924 3.16465744 16.00382924 3.16465744 19 4 C19.33 5.65 19.66 7.3 20 9 C16.44219804 8.39009109 13.3171411 7.4216319 10 6 C10 4.68 10 3.36 10 2 C10.66 2 11.32 2 12 2 C12 1.34 12 0.68 12 0 Z " fill="#0D98CB" transform="translate(170,240)"/>
<path d="M0 0 C1.98 0.99 1.98 0.99 4 2 C4 2.99 4 3.98 4 5 C4.66 5 5.32 5 6 5 C6 6.32 6 7.64 6 9 C6.66 9 7.32 9 8 9 C8.52992692 10.45505358 9.0486789 11.91418127 9.5625 13.375 C9.85253906 14.18710938 10.14257812 14.99921875 10.44140625 15.8359375 C11 18 11 18 10 20 C10.66 20 11.32 20 12 20 C12.144375 21.134375 12.28875 22.26875 12.4375 23.4375 C12.61171478 26.80777201 12.61171478 26.80777201 14 28 C14.07179964 29.51928038 14.08392007 31.04167482 14.0625 32.5625 C14.05347656 33.38878906 14.04445313 34.21507812 14.03515625 35.06640625 C14.02355469 35.70449219 14.01195312 36.34257812 14 37 C12.23825409 33.82432068 11.3723698 30.78231348 10.5625 27.25 C8.20430247 17.57205072 4.24212162 9.0059281 0 0 Z " fill="#C9F6F9" transform="translate(308,139)"/>
<path d="M0 0 C-2.29682108 1.53121406 -4.24511274 2.63142655 -6.73046875 3.734375 C-16.23857779 7.89006009 -16.23857779 7.89006009 -24.875 13.5625 C-25.90625 14.366875 -26.9375 15.17125 -28 16 C-28.99 15.67 -29.98 15.34 -31 15 C-28.6614804 11.49222061 -26.73586552 10.79010223 -23 9 C-22.34 8.34 -21.68 7.68 -21 7 C-19.01178687 6.60235737 -17.01055661 6.26224651 -15 6 C-14.67 4.68 -14.34 3.36 -14 2 C-4.58997722 -0.29612756 -4.58997722 -0.29612756 0 0 Z " fill="#299ABC" transform="translate(194,73)"/>
<path d="M0 0 C1.98 0 3.96 0 6 0 C6.33 0.99 6.66 1.98 7 3 C7.66 3.33 8.32 3.66 9 4 C5.25 9.75 5.25 9.75 3 12 C2.01 12 1.02 12 0 12 C0 8.04 0 4.08 0 0 Z " fill="#292929" transform="translate(125,410)"/>
<path d="M0 0 C2.30357849 2.96967347 4.29024215 6.04478856 6.25 9.25 C9.41339204 14.27500441 12.93204394 18.68475178 17 23 C15.13671875 23.59765625 15.13671875 23.59765625 13 24 C9.93720523 21.81228945 9.10127524 20.43885938 8.25 16.75 C8.1675 15.8425 8.085 14.935 8 14 C6.68 13.67 5.36 13.34 4 13 C3.67 11.02 3.34 9.04 3 7 C2.34 7 1.68 7 1 7 C0.67 4.69 0.34 2.38 0 0 Z " fill="#C9F3F9" transform="translate(159,224)"/>
<path d="M0 0 C-2.62198774 2.15377564 -4.64404172 3.40072174 -8 4 C-6.68 4.99 -5.36 5.98 -4 7 C-5 8 -5 8 -7.8125 8.125 C-11 8 -11 8 -13.1875 7.4375 C-15.2175204 6.77806294 -15.2175204 6.77806294 -18 8 C-18.66 7.34 -19.32 6.68 -20 6 C-17.42249905 4.79816525 -14.83928838 3.61343114 -12.25 2.4375 C-11.52039063 2.09525391 -10.79078125 1.75300781 -10.0390625 1.40039062 C-9.33007812 1.08134766 -8.62109375 0.76230469 -7.890625 0.43359375 C-7.24125977 0.13509521 -6.59189453 -0.16340332 -5.92285156 -0.47094727 C-3.60506519 -1.10866223 -2.25095697 -0.75542816 0 0 Z " fill="#D7F6F9" transform="translate(202,72)"/>
<path d="M0 0 C0.33 0 0.66 0 1 0 C1.0578304 4.45827926 1.09353855 8.9164628 1.125 13.375 C1.14175781 14.64601563 1.15851563 15.91703125 1.17578125 17.2265625 C1.18222656 18.43828125 1.18867188 19.65 1.1953125 20.8984375 C1.20578613 22.01911621 1.21625977 23.13979492 1.22705078 24.29443359 C1 27 1 27 -1 29 C-1.66 28.67 -2.32 28.34 -3 28 C-2.67 27.34 -2.34 26.68 -2 26 C-1.85838491 24.12670244 -1.77395012 22.24892535 -1.71875 20.37109375 C-1.68136719 19.25412109 -1.64398438 18.13714844 -1.60546875 16.98632812 C-1.53504026 14.6165399 -1.46472814 12.24674822 -1.39453125 9.87695312 C-1.35714844 8.76126953 -1.31976563 7.64558594 -1.28125 6.49609375 C-1.25095703 5.46669678 -1.22066406 4.4372998 -1.18945312 3.37670898 C-1 1 -1 1 0 0 Z " fill="#272727" transform="translate(262,406)"/>
<path d="M0 0 C0.99 0.33 1.98 0.66 3 1 C-1.80440578 4.60330434 -6.54719421 7.49216949 -12 10 C-12.9075 10.433125 -13.815 10.86625 -14.75 11.3125 C-17.27855724 12.08511471 -18.54899025 11.90778139 -21 11 C-18.35261084 9.5393715 -17.10551666 9 -14 9 C-14.66 7.35 -15.32 5.7 -16 4 C-12 4 -12 4 -10 5 C-10.33 5.66 -10.66 6.32 -11 7 C-6.19898041 4.3553119 -6.19898041 4.3553119 -1.75 1.1875 C-1.1725 0.795625 -0.595 0.40375 0 0 Z " fill="#1C95BE" transform="translate(285,255)"/>
<path d="M0 0 C0 0.99 0 1.98 0 3 C-1.99616554 4.99616554 -5.81701963 4.40983427 -8.5625 4.5625 C-9.62887695 4.62727539 -9.62887695 4.62727539 -10.71679688 4.69335938 C-12.47761912 4.79971777 -14.2387832 4.90038846 -16 5 C-15.67 3.68 -15.34 2.36 -15 1 C-9.91913204 0.15318867 -5.15171623 -0.09038099 0 0 Z " fill="#089AC7" transform="translate(272,310)"/>
<path d="M0 0 C2 1.3125 2 1.3125 4 3 C4 3.99 4 4.98 4 6 C4.99 6 5.98 6 7 6 C7.33 7.65 7.66 9.3 8 11 C8.61875 11.04125 9.2375 11.0825 9.875 11.125 C10.926875 11.558125 10.926875 11.558125 12 12 C13.25 15.0625 13.25 15.0625 14 18 C7.05472176 13.93447127 1.78360436 8.1220788 -2 1 C-1.34 0.67 -0.68 0.34 0 0 Z " fill="#D6F6F7" transform="translate(144,261)"/>
<path d="M0 0 C0.33 0 0.66 0 1 0 C1.02922653 4.49998618 1.04687482 8.99994765 1.0625 13.5 C1.07087891 14.7684375 1.07925781 16.036875 1.08789062 17.34375 C1.10434137 23.66083499 1.00091014 29.75810372 0 36 C1.32 36.33 2.64 36.66 4 37 C2.515 37.495 2.515 37.495 1 38 C-0.22520264 41.00847418 -0.22520264 41.00847418 -1 44 C-1.33 44 -1.66 44 -2 44 C-1.93941406 42.8346875 -1.87882812 41.669375 -1.81640625 40.46875 C-1.12426992 26.98253633 -0.54328249 13.49297094 0 0 Z " fill="#1891BE" transform="translate(358,172)"/>
<path d="M0 0 C1.19496094 0.55429687 2.38992187 1.10859375 3.62109375 1.6796875 C5.22635556 2.41191218 6.83183612 3.14365743 8.4375 3.875 C9.22060547 4.23980469 10.00371094 4.60460937 10.81054688 4.98046875 C16.16181701 7.40285441 21.22701738 8.90203534 27 10 C27 10.33 27 10.66 27 11 C19.36627584 11.52048119 12.20095923 9.40031974 5 7 C5 6.01 5 5.02 5 4 C3.35 3.67 1.7 3.34 0 3 C0 2.01 0 1.02 0 0 Z " fill="#CAF6FC" transform="translate(193,261)"/>
<path d="M0 0 C3 1 3 1 4.6875 4.0625 C5.120625 5.031875 5.55375 6.00125 6 7 C2.37 7 -1.26 7 -5 7 C-5.66 5.68 -6.32 4.36 -7 3 C-6.21625 3.061875 -5.4325 3.12375 -4.625 3.1875 C-3.75875 3.125625 -2.8925 3.06375 -2 3 C-1.34 2.01 -0.68 1.02 0 0 Z M-3 1 C-2.34 1.33 -1.68 1.66 -1 2 C-2.32 2.33 -3.64 2.66 -5 3 C-4.34 2.34 -3.68 1.68 -3 1 Z " fill="#F2F2F2" transform="translate(146,439)"/>
<path d="M0 0 C5.61865056 5.61865056 4.60509699 16.60076467 5 24 C4.01 23.67 3.02 23.34 2 23 C-0.29612756 7.25512528 -0.29612756 7.25512528 0 0 Z " fill="#C3F1F8" transform="translate(352,152)"/>
<path d="M0 0 C2.31 0 4.62 0 7 0 C6.67 0.99 6.34 1.98 6 3 C5.01 3 4.02 3 3 3 C3 2.34 3 1.68 3 1 C2.34 1 1.68 1 1 1 C1.66 2.98 2.32 4.96 3 7 C-0.34252724 7.07427838 -2.8035914 7.06546953 -6 6 C-6 6.66 -6 7.32 -6 8 C-8.31 8.33 -10.62 8.66 -13 9 C-12.195625 8.360625 -11.39125 7.72125 -10.5625 7.0625 C-8.7249496 5.59396498 -8.7249496 5.59396498 -7 4 C-5.00041636 3.95919217 -2.99954746 3.95745644 -1 4 C-0.67 2.68 -0.34 1.36 0 0 Z " fill="#149BC9" transform="translate(314,281)"/>
<path d="M0 0 C1.32 0 2.64 0 4 0 C2.94910341 3.50298864 1.68880065 6.70483308 0 9.9375 C-1.87184345 13.56245056 -3.01172868 17.04691472 -4 21 C-4.33 21 -4.66 21 -5 21 C-4.67021516 13.39845954 -2.87217429 7.02680781 0 0 Z " fill="#CBF9FD" transform="translate(158,144)"/>
<path d="M0 0 C1.33895632 1.66215268 2.67130142 3.32963607 4 5 C4.5775 5.70125 5.155 6.4025 5.75 7.125 C7 9 7 9 7 12 C4.1875 11.8125 4.1875 11.8125 1 11 C-0.9375 8.6875 -0.9375 8.6875 -2 6 C-1.72774523 3.61777077 -1.06876699 2.13753399 0 0 Z " fill="#2F2F2F" transform="translate(283,435)"/>
<path d="M0 0 C0.99 0.33 1.98 0.66 3 1 C3 1.66 3 2.32 3 3 C3.66 3 4.32 3 5 3 C9.40542376 7.56276033 12.09205711 13.42505806 15 19 C15.61488281 20.03447266 15.61488281 20.03447266 16.2421875 21.08984375 C17.18000656 23.45372787 16.84089584 24.64549166 16 27 C15.27296875 25.56720703 15.27296875 25.56720703 14.53125 24.10546875 C10.66015563 16.59889492 6.61940073 9.69221864 1.46875 2.9765625 C0 1 0 1 0 0 Z " fill="#2896B7" transform="translate(330,109)"/>
<path d="M0 0 C1.64574566 -0.02688151 3.29161413 -0.04634123 4.9375 -0.0625 C5.85402344 -0.07410156 6.77054688 -0.08570313 7.71484375 -0.09765625 C10 0 10 0 11 1 C12.92667507 1.08748207 14.85651861 1.10697334 16.78515625 1.09765625 C17.95498047 1.09443359 19.12480469 1.09121094 20.33007812 1.08789062 C22.17762695 1.07532227 22.17762695 1.07532227 24.0625 1.0625 C25.29806641 1.05798828 26.53363281 1.05347656 27.80664062 1.04882812 C30.87114117 1.03699608 33.93554721 1.02051173 37 1 C35.84423828 2.49316406 35.84423828 2.49316406 34 4 C31.47216797 4.26464844 31.47216797 4.26464844 28.4921875 4.109375 C27.42355469 4.05910156 26.35492188 4.00882812 25.25390625 3.95703125 C24.13886719 3.88871094 23.02382812 3.82039063 21.875 3.75 C20.75222656 3.69714844 19.62945312 3.64429688 18.47265625 3.58984375 C10.15749562 3.15749562 10.15749562 3.15749562 9 2 C7.48530552 1.76807135 5.96245438 1.58784762 4.4375 1.4375 C3.61121094 1.35371094 2.78492188 1.26992188 1.93359375 1.18359375 C1.29550781 1.12300781 0.65742188 1.06242187 0 1 C0 0.67 0 0.34 0 0 Z " fill="#E9FDFE" transform="translate(214,272)"/>
<path d="M0 0 C0.66 0.33 1.32 0.66 2 1 C2 1.99 2 2.98 2 4 C-0.58789062 5.07421875 -0.58789062 5.07421875 -3.17578125 6.1484375 C-5.26533932 7.06806692 -5.26533932 7.06806692 -8 9 C-9.88154883 9.44111565 -11.78062638 9.8109267 -13.6875 10.125 C-14.68136719 10.29257812 -15.67523438 10.46015625 -16.69921875 10.6328125 C-17.45847656 10.75398438 -18.21773438 10.87515625 -19 11 C-15.56881921 8.18245608 -11.78632503 6.29480083 -7.8125 4.375 C-3.62824209 2.58571585 -3.62824209 2.58571585 0 0 Z " fill="#39A1C4" transform="translate(299,290)"/>
<path d="M0 0 C0.99 0 1.98 0 3 0 C3.33 2.64 3.66 5.28 4 8 C1.69 8 -0.62 8 -3 8 C-3.33 9.32 -3.66 10.64 -4 12 C-5.32 12 -6.64 12 -8 12 C-7 10 -6 8 -5 6 C-4.01 6 -3.02 6 -2 6 C-1.34 4.02 -0.68 2.04 0 0 Z " fill="#139CCD" transform="translate(347,240)"/>
<path d="M0 0 C1.70703125 0.078125 1.70703125 0.078125 4 1 C5.7372812 3.23072746 7.21679431 5.35616603 8.6875 7.75 C9.09033203 8.37132812 9.49316406 8.99265625 9.90820312 9.6328125 C12.06460007 13.05704081 13.53825236 15.89905482 14 20 C11.5 17.75 11.5 17.75 9 15 C9 13.68 9 12.36 9 11 C8.34 11 7.68 11 7 11 C7 10.34 7 9.68 7 9 C6.34 9 5.68 9 5 9 C4.731875 8.236875 4.46375 7.47375 4.1875 6.6875 C3.04879949 4.11044096 2.04475081 2.85886437 0 1 C0 0.67 0 0.34 0 0 Z " fill="#2C9ABA" transform="translate(300,132)"/>
<path d="M0 0 C0.33 0 0.66 0 1 0 C2.3403676 6.33628319 2.3403676 6.33628319 0.75 9.4375 C-1 11 -1 11 -4 11 C-4.33 12.65 -4.66 14.3 -5 16 C-5.66 16 -6.32 16 -7 16 C-5.26017005 10.18738629 -3.1889511 5.16830006 0 0 Z " fill="#D4F9FB" transform="translate(131,127)"/>
<path d="M0 0 C-0.33 0.99 -0.66 1.98 -1 3 C-1.22718496 5.56634861 -1.41608184 8.11678107 -1.5625 10.6875 C-1.60568359 11.38939453 -1.64886719 12.09128906 -1.69335938 12.81445312 C-1.7991736 14.54275206 -1.90006581 16.2713511 -2 18 C-2.99 18.33 -3.98 18.66 -5 19 C-6.04167441 14.90274731 -5.94409525 11.38504776 -5.5625 7.1875 C-5.46066406 6.02605469 -5.35882813 4.86460937 -5.25390625 3.66796875 C-5.17011719 2.78753906 -5.08632812 1.90710938 -5 1 C-2 0 -2 0 0 0 Z " fill="#2EA3C6" transform="translate(199,186)"/>
<path d="M0 0 C0.66 0.33 1.32 0.66 2 1 C1.67 1.99 1.34 2.98 1 4 C0.34 4 -0.32 4 -1 4 C-1.2475 4.556875 -1.495 5.11375 -1.75 5.6875 C-3.21606015 8.39971127 -5.02989471 10.63587365 -7 13 C-8.32 12.67 -9.64 12.34 -11 12 C-3.70159453 3.55353075 -3.70159453 3.55353075 0 0 Z " fill="#1998C3" transform="translate(181,121)"/>
<path d="M0 0 C0 0.66 0 1.32 0 2 C8.91 2 17.82 2 27 2 C27 2.33 27 2.66 27 3 C15.12 3.33 3.24 3.66 -9 4 C-9 3.34 -9 2.68 -9 2 C-3.375 0 -3.375 0 0 0 Z " fill="#1392B9" transform="translate(208,183)"/>
<path d="M0 0 C4.95 0 9.9 0 15 0 C14.67 0.99 14.34 1.98 14 3 C9.38 3 4.76 3 0 3 C0 2.01 0 1.02 0 0 Z " fill="#099BC6" transform="translate(209,178)"/>
<path d="M0 0 C0.66 0 1.32 0 2 0 C1.5875 1.19625 1.175 2.3925 0.75 3.625 C-1.38790069 10.0182437 -3.18144228 16.51042602 -5 23 C-5.33 23 -5.66 23 -6 23 C-6.38445177 16.72062103 -5.7194917 12.65654273 -3 7 C-2.30859478 4.22111387 -2.30859478 4.22111387 -2 2 C-1.34 2 -0.68 2 0 2 C0 1.34 0 0.68 0 0 Z " fill="#2F9BBE" transform="translate(124,137)"/>
<path d="M0 0 C0.33 0 0.66 0 1 0 C1 3.3 1 6.6 1 10 C1.66 10 2.32 10 3 10 C2.67 9.01 2.34 8.02 2 7 C2.27571139 4.99124558 2.60235737 2.98821313 3 1 C3.33 1 3.66 1 4 1 C4.22786458 3.01822917 4.45572917 5.03645833 4.68359375 7.0546875 C4.91292961 9.07404316 4.91292961 9.07404316 6 11 C5.67 11.66 5.34 12.32 5 13 C4.01 12.67 3.02 12.34 2 12 C1.01 12.495 1.01 12.495 0 13 C-0.96661363 9.87819599 -0.98988909 7.47916205 -0.5625 4.25 C-0.46066406 3.45078125 -0.35882813 2.6515625 -0.25390625 1.828125 C-0.17011719 1.22484375 -0.08632812 0.6215625 0 0 Z M5 3 C5.99 3.33 6.98 3.66 8 4 C7.34 5.65 6.68 7.3 6 9 C5.4465236 6.92446352 5 5.15634036 5 3 Z " fill="#4A4A4A" transform="translate(106,402)"/>
<path d="M0 0 C0.80824219 0.10183594 1.61648438 0.20367187 2.44921875 0.30859375 C3.06410156 0.39238281 3.67898438 0.47617187 4.3125 0.5625 C-1.21913142 4.25025428 -6.1818717 5.02390768 -12.6875 5.5625 C-8.43392763 1.0790048 -6.21239698 -0.81031265 0 0 Z " fill="#D6F7FA" transform="translate(275.6875,299.4375)"/>
<path d="M0 0 C1.77134264 3.04511712 2.0664927 3.67962606 1.3125 7.3125 C0.0129626 10.96358127 -1.41343903 14.46629601 -3 18 C-3.33 18 -3.66 18 -4 18 C-3.48914188 11.56318772 -2.27057103 6.04057576 0 0 Z " fill="#2899B9" transform="translate(317,206)"/>
<path d="M0 0 C1.32 0.33 2.64 0.66 4 1 C1.87754286 2.98195646 -0.24780268 4.96064257 -2.375 6.9375 C-3.27992188 7.78344727 -3.27992188 7.78344727 -4.203125 8.64648438 C-4.78320312 9.18466797 -5.36328125 9.72285156 -5.9609375 10.27734375 C-6.49509277 10.77484131 -7.02924805 11.27233887 -7.57958984 11.78491211 C-9 13 -9 13 -11 14 C-11 12.68 -11 11.36 -11 10 C-10.01 10 -9.02 10 -8 10 C-8.33 9.01 -8.66 8.02 -9 7 C-7.35 6.67 -5.7 6.34 -4 6 C-3.67 4.68 -3.34 3.36 -3 2 C-2.01 2 -1.02 2 0 2 C0 1.34 0 0.68 0 0 Z " fill="#C9F3F8" transform="translate(182,117)"/>
<path d="M0 0 C4.54109672 4.26587874 8.24735246 9.03612328 12 14 C11.01 14.495 11.01 14.495 10 15 C6.40521424 11.50792241 2.99752225 8.02524416 0 4 C0 2.68 0 1.36 0 0 Z " fill="#C8F1F9" transform="translate(327,107)"/>
<path d="M0 0 C0.33 0 0.66 0 1 0 C1.86545955 3.45560866 2.71543497 6.91484045 3.5625 10.375 C3.80935547 11.35984375 4.05621094 12.3446875 4.31054688 13.359375 C4.53935547 14.30039063 4.76816406 15.24140625 5.00390625 16.2109375 C5.21861572 17.08024902 5.4333252 17.94956055 5.65454102 18.84521484 C6 21 6 21 5 23 C1.75990486 20.83993657 1.56922121 20.65636566 0.8125 17.125 C-0.30997577 11.43840789 -0.17577033 5.77112591 0 0 Z " fill="#B8ECF8" transform="translate(151,196)"/>
<path d="M0 0 C0.33 0.99 0.66 1.98 1 3 C-3.57692661 6.54945329 -7.18680083 8.90316997 -13 10 C-15.4375 9.625 -15.4375 9.625 -17 9 C-16.05125 8.62875 -15.1025 8.2575 -14.125 7.875 C-9.13282053 5.75306745 -4.59684471 2.85799802 0 0 Z " fill="#BAECF5" transform="translate(287,256)"/>
<path d="M0 0 C0.33 0 0.66 0 1 0 C0.8583467 2.87526069 0.71181468 5.75013536 0.5625 8.625 C0.50352539 9.83736328 0.50352539 9.83736328 0.44335938 11.07421875 C0.21203918 15.45150865 -0.16920917 19.68547281 -1 24 C-1.99 24.33 -2.98 24.66 -4 25 C-3.24010799 19.5036937 -2.35894561 14.03385883 -1.4375 8.5625 C-1.29892578 7.73556641 -1.16035156 6.90863281 -1.01757812 6.05664062 C-0.67913211 4.03763511 -0.33967107 2.01879978 0 0 Z " fill="#4CADCE" transform="translate(356,200)"/>
<path d="M0 0 C6.573451 4.10257935 12.33268868 8.72122776 18 14 C15 14 15 14 13.0625 12.125 C12.381875 11.42375 11.70125 10.7225 11 10 C9.01997146 8.88623394 7.02738944 8.01161976 4.9375 7.125 C2.58197314 5.75727472 1.43570753 4.29713205 0 2 C0 1.34 0 0.68 0 0 Z " fill="#2D99BA" transform="translate(279,112)"/>
<path d="M0 0 C1.32 0.33 2.64 0.66 4 1 C4.99 1 5.98 1 7 1 C7 1.99 7 2.98 7 4 C6.01 4 5.02 4 4 4 C4.309375 4.928125 4.309375 4.928125 4.625 5.875 C4.74875 6.57625 4.8725 7.2775 5 8 C4.34 8.66 3.68 9.32 3 10 C2.67 9.67 2.34 9.34 2 9 C2 9.66 2 10.32 2 11 C1.34 11 0.68 11 0 11 C0 7.37 0 3.74 0 0 Z " fill="#252525" transform="translate(107,401)"/>
<path d="M0 0 C5.75 -0.125 5.75 -0.125 8 1 C8 1.66 8 2.32 8 3 C10.64 3 13.28 3 16 3 C16 3.66 16 4.32 16 5 C16.66 5.66 17.32 6.32 18 7 C13.51006131 6.41347648 9.77456816 5.2356462 5.625 3.4375 C4.56539062 2.98246094 3.50578125 2.52742188 2.4140625 2.05859375 C1.61742187 1.70925781 0.82078125 1.35992187 0 1 C0 0.67 0 0.34 0 0 Z " fill="#C2F0F7" transform="translate(184,296)"/>
<path d="M0 0 C0 0.66 0 1.32 0 2 C-4.97011673 3.99118241 -9.12333135 4.24845695 -14.375 4.125 C-15.47908203 4.11146484 -15.47908203 4.11146484 -16.60546875 4.09765625 C-18.4037888 4.07430144 -20.20193911 4.03843836 -22 4 C-22 3.67 -22 3.34 -22 3 C-19.08397391 2.49599549 -16.16727908 1.99665334 -13.25 1.5 C-12.425 1.35691406 -11.6 1.21382813 -10.75 1.06640625 C-9.95078125 0.93105469 -9.1515625 0.79570312 -8.328125 0.65625 C-7.5949707 0.53056641 -6.86181641 0.40488281 -6.10644531 0.27539062 C-4 0 -4 0 0 0 Z " fill="#46A8C8" transform="translate(270,304)"/>
<path d="M0 0 C0.66 0.33 1.32 0.66 2 1 C1.88590407 2.45922693 1.75834456 3.91740598 1.625 5.375 C1.55539062 6.18710938 1.48578125 6.99921875 1.4140625 7.8359375 C1 10 1 10 -1 12 C-1 11.01 -1 10.02 -1 9 C-1.66 9 -2.32 9 -3 9 C-3.33 7.02 -3.66 5.04 -4 3 C-2.68 2.01 -1.36 1.02 0 0 Z " fill="#0898C8" transform="translate(350,127)"/>
<path d="M0 0 C0 0.33 0 0.66 0 1 C-2.41656376 1.64622041 -4.83324646 2.29199004 -7.25 2.9375 C-7.93191406 3.11990234 -8.61382812 3.30230469 -9.31640625 3.49023438 C-12.53860894 4.35053121 -15.76053223 5.20683134 -19 6 C-17.125 2.125 -17.125 2.125 -16 1 C-10.6038493 0.1479762 -5.45742292 -0.09745398 0 0 Z " fill="#CDF6F8" transform="translate(221,102)"/>
<path d="M0 0 C1.32 0.33 2.64 0.66 4 1 C4 2.32 4 3.64 4 5 C4.99 5 5.98 5 7 5 C7.33 6.65 7.66 8.3 8 10 C8.99 10.33 9.98 10.66 11 11 C10.01 11.33 9.02 11.66 8 12 C6.65772954 10.57084149 5.32642904 9.13137328 4 7.6875 C3.2575 6.88699219 2.515 6.08648437 1.75 5.26171875 C0 3 0 3 0 0 Z " fill="#1D9AC0" transform="translate(321,97)"/>
<path d="M0 0 C7.74152536 -0.39363688 14.52058632 1.05789567 22 3 C22 3.33 22 3.66 22 4 C14.06714481 4.36801906 7.4654395 3.77476512 0 1 C0 0.67 0 0.34 0 0 Z " fill="#C6F0F6" transform="translate(250,67)"/>
<path d="M0 0 C4.8288023 1.44864069 9.78694365 3.17453739 14 6 C14.33 6.99 14.66 7.98 15 9 C12.16397629 8.60610782 10.35240608 8.27283051 8.0625 6.5 C5.43953413 4.59238846 3.18321138 4.36172857 0 4 C0 2.68 0 1.36 0 0 Z " fill="#1D96C2" transform="translate(176,293)"/>
<path d="M0 0 C2.43425852 2.43425852 3.29836541 4.70193832 4.625 7.875 C5.07101562 8.92429688 5.51703125 9.97359375 5.9765625 11.0546875 C7 14 7 14 7 18 C6.34 18 5.68 18 5 18 C1.44282388 12.66423581 0.78316521 6.26532165 0 0 Z " fill="#C6F5F9" transform="translate(345,134)"/>
<path d="M0 0 C2.64 0.33 5.28 0.66 8 1 C8 1.99 8 2.98 8 4 C9.32 4.66 10.64 5.32 12 6 C11.34 7.32 10.68 8.64 10 10 C6.66666667 6.66666667 3.33333333 3.33333333 0 0 Z " fill="#C9ECF7" transform="translate(288,118)"/>
<path d="M0 0 C-0.5 2.875 -0.5 2.875 -2 6 C-4.57565393 7.27691318 -7.12150548 7.95202509 -10 8 C-10.66 7.34 -11.32 6.68 -12 6 C-10.37829621 4.99466333 -8.75252763 3.99588093 -7.125 3 C-5.76761719 2.1646875 -5.76761719 2.1646875 -4.3828125 1.3125 C-2 0 -2 0 0 0 Z " fill="#C8F2F9" transform="translate(182,79)"/>
<path d="M0 0 C0.99 0 1.98 0 3 0 C1.53967505 5.31027254 -0.98320986 9.46330032 -4 14 C-4.9113287 11.47942631 -5.08517871 10.26674385 -4.2578125 7.67578125 C-3.88398438 6.89589844 -3.51015625 6.11601562 -3.125 5.3125 C-2.75632812 4.52488281 -2.38765625 3.73726562 -2.0078125 2.92578125 C-1 1 -1 1 0 0 Z " fill="#DBF7FB" transform="translate(341,242)"/>
<path d="M0 0 C1.98 0.66 3.96 1.32 6 2 C6 2.66 6 3.32 6 4 C6.7425 4.226875 7.485 4.45375 8.25 4.6875 C11.51139591 6.24407532 12.92894975 8.08518854 15 11 C14.01 11.495 14.01 11.495 13 12 C12.34 11.67 11.68 11.34 11 11 C11 10.34 11 9.68 11 9 C10.071875 8.566875 10.071875 8.566875 9.125 8.125 C7 7 7 7 5 5 C4.319375 4.690625 3.63875 4.38125 2.9375 4.0625 C1 3 1 3 0 0 Z " fill="#C6F5F9" transform="translate(298,83)"/>
<path d="M0 0 C5.85034386 0.52235213 10.65064825 1.50978453 16 4 C17.5 6.1875 17.5 6.1875 18 8 C13.78224268 6.64474464 9.70578678 5.09799886 5.625 3.375 C4.56539063 2.92898437 3.50578125 2.48296875 2.4140625 2.0234375 C1.61742187 1.68570313 0.82078125 1.34796875 0 1 C0 0.67 0 0.34 0 0 Z " fill="#319BB8" transform="translate(272,70)"/>
<path d="M0 0 C0.66 0 1.32 0 2 0 C4 3 4 3 5 5 C4.05125 5.45375 3.1025 5.9075 2.125 6.375 C-1.00313679 7.80238254 -1.00313679 7.80238254 -3 10 C-3 9.34 -3 8.68 -3 8 C-4.32 8.33 -5.64 8.66 -7 9 C-6.67 8.34 -6.34 7.68 -6 7 C-5.01 7 -4.02 7 -3 7 C-2.690625 6.21625 -2.38125 5.4325 -2.0625 4.625 C-1 2 -1 2 0 0 Z " fill="#474747" transform="translate(364,436)"/>
<path d="M0 0 C2 1 2 1 2.6875 2.875 C3 5 3 5 2 8 C2.66 8.33 3.32 8.66 4 9 C5.0194119 9.98020375 6.02246356 10.97803008 7 12 C6.67 12.66 6.34 13.32 6 14 C3.11689024 12.70757149 0.9599051 11.50685536 -1 9 C-1.07421875 6.73828125 -1.07421875 6.73828125 -0.6875 4.3125 C-0.56761719 3.50425781 -0.44773437 2.69601562 -0.32421875 1.86328125 C-0.21722656 1.24839844 -0.11023438 0.63351562 0 0 Z " fill="#3A3A3A" transform="translate(85,424)"/>
<path d="M0 0 C-1.1875 2 -1.1875 2 -3 4 C-5.6875 4.25 -5.6875 4.25 -8 4 C-8.33 4.66 -8.66 5.32 -9 6 C-9.99 6 -10.98 6 -12 6 C-11.05275873 3.63189682 -10.34708866 2.24792047 -8.25 0.75 C-5.42246362 -0.19251213 -2.96006696 -0.1345485 0 0 Z " fill="#444444" transform="translate(306,409)"/>
<path d="M0 0 C1.485 0.99 1.485 0.99 3 2 C2.67 2.66 2.34 3.32 2 4 C2.66 4 3.32 4 4 4 C4.144375 5.134375 4.28875 6.26875 4.4375 7.4375 C4.61171478 10.80777201 4.61171478 10.80777201 6 12 C6.07179964 13.51928038 6.08392007 15.04167482 6.0625 16.5625 C6.05347656 17.38878906 6.04445313 18.21507812 6.03515625 19.06640625 C6.02355469 19.70449219 6.01195312 20.34257812 6 21 C4.21459726 17.77700026 3.29865512 14.63787178 2.4375 11.0625 C2.18871094 10.04285156 1.93992187 9.02320313 1.68359375 7.97265625 C1.07411704 5.32230323 0.51627422 2.66987524 0 0 Z " fill="#ABE5F4" transform="translate(316,155)"/>
<path d="M0 0 C2 1 2 1 2.8515625 2.85546875 C4.3516571 7.37848126 5.37173481 11.16744753 5 16 C4.34 16 3.68 16 3 16 C2.49411853 14.08487728 1.99551609 12.16783078 1.5 10.25 C1.2215625 9.18265625 0.943125 8.1153125 0.65625 7.015625 C0 4 0 4 0 0 Z " fill="#2B97C0" transform="translate(314,152)"/>
<path d="M0 0 C0.33 0 0.66 0 1 0 C1 1.65 1 3.3 1 5 C0.34 5 -0.32 5 -1 5 C-1.33 6.65 -1.66 8.3 -2 10 C-2.66 10 -3.32 10 -4 10 C-4 10.66 -4 11.32 -4 12 C-5.32 11.67 -6.64 11.34 -8 11 C-7.50628906 10.37351562 -7.01257813 9.74703125 -6.50390625 9.1015625 C-5.54291016 7.87566406 -5.54291016 7.87566406 -4.5625 6.625 C-3.92441406 5.81289063 -3.28632813 5.00078125 -2.62890625 4.1640625 C-0.97776453 2.10601894 -0.97776453 2.10601894 0 0 Z " fill="#29A1C0" transform="translate(338,252)"/>
<path d="M0 0 C0 6 0 6 -1.125 7.6875 C-3.76459098 9.53521368 -5.85804073 9.20946395 -9 9 C-6 6 -3 3 0 0 Z " fill="#CBF1F3" transform="translate(297,247)"/>
<path d="M0 0 C0.99 0.33 1.98 0.66 3 1 C3 1.66 3 2.32 3 3 C3.556875 3.268125 4.11375 3.53625 4.6875 3.8125 C11.56164384 7.34246575 11.56164384 7.34246575 14 11 C12.0625 10.6875 12.0625 10.6875 10 10 C9.67 9.01 9.34 8.02 9 7 C7.68 7 6.36 7 5 7 C5 6.34 5 5.68 5 5 C3.68 4.67 2.36 4.34 1 4 C0.67 2.68 0.34 1.36 0 0 Z " fill="#0F9AC2" transform="translate(288,121)"/>
<path d="M0 0 C0.66 0 1.32 0 2 0 C2 1.65 2 3.3 2 5 C2.66 5 3.32 5 4 5 C4 5.99 4 6.98 4 8 C4.66 8 5.32 8 6 8 C6.33 7.34 6.66 6.68 7 6 C7 6.99 7 7.98 7 9 C3.98968256 9.93423645 3.13349732 10.04449911 0 9 C0 6.03 0 3.06 0 0 Z " fill="#252525" transform="translate(107,436)"/>
<path d="M0 0 C1.98 0.66 3.96 1.32 6 2 C5.8125 4.375 5.8125 4.375 5 7 C2.4375 8.3125 2.4375 8.3125 0 9 C0 8.01 0 7.02 0 6 C0.66 6 1.32 6 2 6 C1.34 5.34 0.68 4.68 0 4 C0 2.68 0 1.36 0 0 Z " fill="#E8F7F5" transform="translate(304,278)"/>
<path d="M0 0 C2 2 2 2 2.125 4.625 C2.08375 5.40875 2.0425 6.1925 2 7 C1.01 6.34 0.02 5.68 -1 5 C-1 4.34 -1 3.68 -1 3 C-1.66 3 -2.32 3 -3 3 C-2.67 5.31 -2.34 7.62 -2 10 C-2.99 10 -3.98 10 -5 10 C-5.125 4.25 -5.125 4.25 -4 2 C-2.68 2 -1.36 2 0 2 C0 1.34 0 0.68 0 0 Z " fill="#0D97D1" transform="translate(334,262)"/>
<path d="M0 0 C1.9375 0.8125 1.9375 0.8125 4 2 C4.33 2.99 4.66 3.98 5 5 C6.65 5.33 8.3 5.66 10 6 C10 7.65 10 9.3 10 11 C5.86062408 7.69984002 2.41337795 4.82675589 0 0 Z " fill="#2794BC" transform="translate(170,240)"/>
<path d="M0 0 C2 2 2 2 2 5 C2.99 4.67 3.98 4.34 5 4 C5 6.64 5 9.28 5 12 C4.01 11.67 3.02 11.34 2 11 C2 10.34 2 9.68 2 9 C1.67 8.401875 1.34 7.80375 1 7.1875 C-0.16753352 4.63352044 -0.15425613 2.77661037 0 0 Z " fill="#242424" transform="translate(365,431)"/>
<path d="M0 0 C2.125 0.9375 2.125 0.9375 4 2 C3.67 3.32 3.34 4.64 3 6 C0.03 5.505 0.03 5.505 -3 5 C-2.625 3.0625 -2.625 3.0625 -2 1 C-1.34 0.67 -0.68 0.34 0 0 Z " fill="#2D2D2D" transform="translate(347,413)"/>
<path d="M0 0 C2 3 2 3 2 7 C1.01 7 0.02 7 -1 7 C-1.2165625 7.928125 -1.2165625 7.928125 -1.4375 8.875 C-2 11 -2 11 -3 13 C-3.66 13 -4.32 13 -5 13 C-3.58192622 8.52761347 -1.88695626 4.28853694 0 0 Z " fill="#239CBB" transform="translate(348,233)"/>
<path d="M0 0 C0.66 0.33 1.32 0.66 2 1 C-1.3 4.3 -4.6 7.6 -8 11 C-8.33 10.01 -8.66 9.02 -9 8 C-8.34 8 -7.68 8 -7 8 C-6.773125 7.236875 -6.54625 6.47375 -6.3125 5.6875 C-4.72014048 2.42695432 -3.27263601 1.4726862 0 0 Z " fill="#2B98B9" transform="translate(160,90)"/>
<path d="M0 0 C0.66 0.33 1.32 0.66 2 1 C1.67 1.33 1.34 1.66 1 2 C1.99 2.33 2.98 2.66 4 3 C3.67 4.32 3.34 5.64 3 7 C1.68 7 0.36 7 -1 7 C-1 6.01 -1 5.02 -1 4 C-2.32 4.33 -3.64 4.66 -5 5 C-3.35 3.35 -1.7 1.7 0 0 Z " fill="#DEF3EE" transform="translate(168,86)"/>
<path d="M0 0 C0.99 0 1.98 0 3 0 C3 0.66 3 1.32 3 2 C4.65 2.33 6.3 2.66 8 3 C8.33 5.64 8.66 8.28 9 11 C5.40521193 7.67149253 2.77635232 4.01028669 0 0 Z " fill="#CDF5FB" transform="translate(299,128)"/>
<path d="M0 0 C2.125 0.375 2.125 0.375 4 1 C4 1.66 4 2.32 4 3 C3.34 3 2.68 3 2 3 C2.309375 4.1446875 2.309375 4.1446875 2.625 5.3125 C3 8 3 8 1 11 C0.01 8.03 -0.98 5.06 -2 2 C-1.34 1.34 -0.68 0.68 0 0 Z " fill="#099AC8" transform="translate(122,128)"/>
<path d="M0 0 C1.10370043 3.3111013 0.92673641 5.24748949 0.5625 8.6875 C0.46066406 9.68136719 0.35882813 10.67523438 0.25390625 11.69921875 C0.12822266 12.83810547 0.12822266 12.83810547 0 14 C-0.33 14 -0.66 14 -1 14 C-1.33 11.36 -1.66 8.72 -2 6 C-2.99 6.33 -3.98 6.66 -5 7 C-4.1875 4.0625 -4.1875 4.0625 -3 1 C-2.01 0.67 -1.02 0.34 0 0 Z " fill="#252525" transform="translate(153,415)"/>
<path d="M0 0 C-0.5775 0.2475 -1.155 0.495 -1.75 0.75 C-4.13266887 1.9318612 -4.13266887 1.9318612 -6.0625 4.125 C-8 6 -8 6 -11 6 C-10.75 4.125 -10.75 4.125 -10 2 C-6.82026536 -0.35535899 -3.84875379 -0.17494335 0 0 Z " fill="#414141" transform="translate(178,409)"/>
<path d="M0 0 C0.66 0.33 1.32 0.66 2 1 C0.3125 4 0.3125 4 -2 7 C-4.75 7.375 -4.75 7.375 -7 7 C-6.67 6.01 -6.34 5.02 -6 4 C-5.01 4 -4.02 4 -3 4 C-2.67 3.01 -2.34 2.02 -2 1 C-1.34 0.67 -0.68 0.34 0 0 Z " fill="#099BC7" transform="translate(199,111)"/>
<path d="M0 0 C-0.99 1.32 -1.98 2.64 -3 4 C-2.34 4.33 -1.68 4.66 -1 5 C-6.53846154 4.38461538 -6.53846154 4.38461538 -8.875 2.4375 C-9.24625 1.963125 -9.6175 1.48875 -10 1 C-3.375 -1.125 -3.375 -1.125 0 0 Z " fill="#199DC1" transform="translate(308,81)"/>
<path d="M0 0 C2.89932357 2.39509338 3.50168276 4.31245243 4 8 C0.62496331 6.8141763 -1.64722731 5.72426311 -4 3 C-2.68 2.01 -1.36 1.02 0 0 Z " fill="#404040" transform="translate(360,418)"/>
<path d="M0 0 C-0.78375 0.433125 -1.5675 0.86625 -2.375 1.3125 C-5.21698375 2.89220247 -5.21698375 2.89220247 -7 6 C-7.66 5.67 -8.32 5.34 -9 5 C-9 3.35 -9 1.7 -9 0 C-5.62182575 -0.84454356 -3.32534757 -1.10844919 0 0 Z " fill="#2D2D2D" transform="translate(390,411)"/>
<path d="M0 0 C0.33 0 0.66 0 1 0 C1.63019694 10.97592998 1.63019694 10.97592998 -1 15.25 C-1.99 16.11625 -1.99 16.11625 -3 17 C-2.0787571 11.31900211 -1.03745006 5.66064984 0 0 Z " fill="#B4ECF7" transform="translate(321,197)"/>
<path d="M0 0 C1.32 0 2.64 0 4 0 C3.25 2.9375 3.25 2.9375 2 6 C-0.125 6.875 -0.125 6.875 -2 7 C-1.125 2.25 -1.125 2.25 0 0 Z " fill="#DBF8FC" transform="translate(158,144)"/>
<path d="M0 0 C4.6875 0.78125 4.6875 0.78125 9.375 1.5625 C10.674375 1.7790625 10.674375 1.7790625 12 2 C12 2.66 12 3.32 12 4 C12.66 4.33 13.32 4.66 14 5 C13.01 5.495 13.01 5.495 12 6 C9.92803369 5.26821134 7.8891448 4.44100997 5.875 3.5625 C4.77929688 3.08941406 3.68359375 2.61632812 2.5546875 2.12890625 C1.71164062 1.75636719 0.86859375 1.38382812 0 1 C0 0.67 0 0.34 0 0 Z " fill="#B5EAF5" transform="translate(266,106)"/>
<path d="M0 0 C1.2077558 3.62326739 0.54311128 4.64146369 -1 8 C-1.66 8 -2.32 8 -3 8 C-3 10.31 -3 12.62 -3 15 C-3.33 15 -3.66 15 -4 15 C-4.29268781 9.34136895 -4.03522952 5.97777642 -1 1 C-0.67 0.67 -0.34 0.34 0 0 Z " fill="#5D5D5D" transform="translate(86,413)"/>
<path d="M0 0 C0.99 0.33 1.98 0.66 3 1 C2.0919838 2.13199353 1.17316174 3.25532363 0.25 4.375 C-0.26046875 5.00148438 -0.7709375 5.62796875 -1.296875 6.2734375 C-3.08199481 8.08312318 -4.67949644 9.00117455 -7 10 C-7 8.68 -7 7.36 -7 6 C-5.68 6 -4.36 6 -3 6 C-2.67 4.68 -2.34 3.36 -2 2 C-1.34 2 -0.68 2 0 2 C0 1.34 0 0.68 0 0 Z " fill="#D1F8FC" transform="translate(323,268)"/>
<path d="M0 0 C0.99 0.33 1.98 0.66 3 1 C0.36 4.3 -2.28 7.6 -5 11 C-5.33 10.01 -5.66 9.02 -6 8 C-4.78515625 5.95703125 -4.78515625 5.95703125 -3.0625 3.8125 C-2.49660156 3.09707031 -1.93070312 2.38164062 -1.34765625 1.64453125 C-0.90292969 1.10183594 -0.45820313 0.55914062 0 0 Z " fill="#CFF9FD" transform="translate(333,256)"/>
<path d="M0 0 C0 3 0 3 -2.375 5.6875 C-5 8 -5 8 -7 8 C-7 4 -7 4 -5.1875 1.75 C-3 0 -3 0 0 0 Z " fill="#0C9AC4" transform="translate(295,240)"/>
<path d="M0 0 C1.32 0.33 2.64 0.66 4 1 C4 3.31 4 5.62 4 8 C3.01 7.67 2.02 7.34 1 7 C0.67 4.69 0.34 2.38 0 0 Z " fill="#F6FFF1" transform="translate(330,192)"/>
<path d="M0 0 C2.10353495 -0.0810206 4.20795952 -0.13919907 6.3125 -0.1875 C7.48425781 -0.22230469 8.65601563 -0.25710937 9.86328125 -0.29296875 C13 0 13 0 16 3 C10.72 2.34 5.44 1.68 0 1 C0 0.67 0 0.34 0 0 Z " fill="#B3E9F4" transform="translate(244,101)"/>
<path d="M0 0 C0.33 0.99 0.66 1.98 1 3 C1.99 2.01 2.98 1.02 4 0 C3.125 4.875 3.125 4.875 2 6 C-0.33297433 6.04092937 -2.66705225 6.04241723 -5 6 C-4.360625 5.7525 -3.72125 5.505 -3.0625 5.25 C-0.81258459 4.18437567 -0.81258459 4.18437567 -0.25 1.875 C-0.1675 1.25625 -0.085 0.6375 0 0 Z " fill="#414141" transform="translate(304,433)"/>
<path d="M0 0 C1.9375 1.125 1.9375 1.125 4 3 C4.75 6.1875 4.75 6.1875 5 9 C1.75700849 6.61042731 -0.50902342 4.7952131 -2 1 C-1.34 0.67 -0.68 0.34 0 0 Z " fill="#CDF8FD" transform="translate(144,261)"/>
<path d="M0 0 C2.25245881 2.68841859 3.88213958 4.64641875 5 8 C5.66 8 6.32 8 7 8 C7.33 8.99 7.66 9.98 8 11 C7.01 11 6.02 11 5 11 C5 10.34 5 9.68 5 9 C4.34 9 3.68 9 3 9 C0.56839395 5.63316085 0 4.26649636 0 0 Z " fill="#2F9ABE" transform="translate(134,252)"/>
<path d="M0 0 C0.33 0 0.66 0 1 0 C0.67 3.63 0.34 7.26 0 11 C-0.99 11.33 -1.98 11.66 -3 12 C-2.69106068 10.3743193 -2.3777305 8.74947252 -2.0625 7.125 C-1.88847656 6.22007812 -1.71445313 5.31515625 -1.53515625 4.3828125 C-1 2 -1 2 0 0 Z " fill="#45A6C2" transform="translate(156,156)"/>
<path d="M0 0 C3 3 3 3 3.1875 5.6875 C3.0946875 6.8321875 3.0946875 6.8321875 3 8 C3.66 8.33 4.32 8.66 5 9 C3.35 9.33 1.7 9.66 0 10 C0 6.7 0 3.4 0 0 Z " fill="#303030" transform="translate(125,412)"/>
<path d="M0 0 C1.22589844 0.01353516 1.22589844 0.01353516 2.4765625 0.02734375 C3.41628906 0.04474609 3.41628906 0.04474609 4.375 0.0625 C4.375 0.3925 4.375 0.7225 4.375 1.0625 C-1.58203125 2.8203125 -1.58203125 2.8203125 -3.625 3.0625 C-4.615 2.4025 -5.605 1.7425 -6.625 1.0625 C-4.21954362 -0.14022819 -2.67503047 -0.03821472 0 0 Z M-5.625 3.0625 C-4.305 3.7225 -2.985 4.3825 -1.625 5.0625 C-3.275 5.3925 -4.925 5.7225 -6.625 6.0625 C-6.295 5.0725 -5.965 4.0825 -5.625 3.0625 Z " fill="#515151" transform="translate(96.625,408.9375)"/>
<path d="M0 0 C0.66 0 1.32 0 2 0 C2 0.99 2 1.98 2 3 C2.66 3.33 3.32 3.66 4 4 C3.01 4.99 2.02 5.98 1 7 C0.01 6.67 -0.98 6.34 -2 6 C-1.34 4.02 -0.68 2.04 0 0 Z " fill="#363636" transform="translate(75,404)"/>
<path d="M0 0 C-0.33 0.66 -0.66 1.32 -1 2 C-3.6875 2.5625 -3.6875 2.5625 -7 3 C-8.670625 3.2784375 -8.670625 3.2784375 -10.375 3.5625 C-11.24125 3.706875 -12.1075 3.85125 -13 4 C-9.0516245 0.65906688 -5.11813443 -1.70604481 0 0 Z " fill="#E6FDFC" transform="translate(269,269)"/>
<path d="M0 0 C1.32 0 2.64 0 4 0 C6.25 2.5 6.25 2.5 8 5 C6.25 5.6875 6.25 5.6875 4 6 C1.75 4.75 1.75 4.75 0 3 C0 2.01 0 1.02 0 0 Z " fill="#0995C7" transform="translate(256,262)"/>
<path d="M0 0 C4.60428934 1.31551124 8.18320388 3.09196486 12 6 C12 6.66 12 7.32 12 8 C7.44328408 6.48109469 3.68276708 4.04597738 0 1 C0 0.67 0 0.34 0 0 Z " fill="#38A0C3" transform="translate(182,253)"/>
<path d="M0 0 C0.66 0.66 1.32 1.32 2 2 C1.05065487 3.67180274 0.09026687 5.33733936 -0.875 7 C-1.40867187 7.928125 -1.94234375 8.85625 -2.4921875 9.8125 C-2.98976563 10.534375 -3.48734375 11.25625 -4 12 C-4.66 12 -5.32 12 -6 12 C-4.43358249 7.69235185 -2.31663844 3.93828536 0 0 Z " fill="#2294B4" transform="translate(310,226)"/>
<path d="M0 0 C2.75927344 2.75927344 2.51783243 5.21154052 3 9 C3.33 9.33 3.66 9.66 4 10 C4.04092937 12.33297433 4.04241723 14.66705225 4 17 C2.34961512 14.0112778 1.5114284 11.28632562 0.875 7.9375 C0.70742187 7.08027344 0.53984375 6.22304687 0.3671875 5.33984375 C0 3 0 3 0 0 Z " fill="#ACE6F4" transform="translate(117,205)"/>
<path d="M0 0 C0 3.69418201 -1.28179295 5.77836178 -3 9 C-4.32 8.67 -5.64 8.34 -7 8 C-4.69 5.36 -2.38 2.72 0 0 Z " fill="#2598BE" transform="translate(177,125)"/>
<path d="M0 0 C1.33332095 2.6666419 0.67102033 4.16680303 0 7 C-0.66 7 -1.32 7 -2 7 C-2.33 7.99 -2.66 8.98 -3 10 C-3.66 10 -4.32 10 -5 10 C-3.84414715 6.08788267 -2.64465038 3.1254959 0 0 Z " fill="#B9EBF5" transform="translate(137,117)"/>
<path d="M0 0 C2.64 0 5.28 0 8 0 C4.8745041 2.64465038 1.91211733 3.84414715 -2 5 C-2 4.34 -2 3.68 -2 3 C-1.34 2.67 -0.68 2.34 0 2 C0 1.34 0 0.68 0 0 Z " fill="#C6F1F9" transform="translate(194,108)"/>
<path d="M0 0 C0.99 0 1.98 0 3 0 C3.33 1.32 3.66 2.64 4 4 C3.01 4.33 2.02 4.66 1 5 C0.67 5.99 0.34 6.98 0 8 C-0.79953138 4.71303767 -1.09658936 3.28976808 0 0 Z " fill="#059EC4" transform="translate(329,99)"/>
<path d="M0 0 C0.66 0.33 1.32 0.66 2 1 C-1.32307692 6.78461538 -1.32307692 6.78461538 -4.75 7.875 C-5.4925 7.91625 -6.235 7.9575 -7 8 C-6.02133662 6.85373678 -5.04205413 5.70800212 -4.0625 4.5625 C-3.51722656 3.92441406 -2.97195312 3.28632812 -2.41015625 2.62890625 C-1.63204305 1.73008851 -0.84063472 0.84063472 0 0 Z " fill="#C0EDF7" transform="translate(161,91)"/>
<path d="M0 0 C2.66735273 2.48952921 4.55746343 4.63408134 6 8 C4.68 7.67 3.36 7.34 2 7 C2 6.01 2 5.02 2 4 C0.68 4 -0.64 4 -2 4 C-2 3.34 -2 2.68 -2 2 C-1.34 2 -0.68 2 0 2 C0 1.34 0 0.68 0 0 Z " fill="#3A3A3A" transform="translate(131,432)"/>
<path d="M0 0 C0.66 1.32 1.32 2.64 2 4 C-0.39509338 6.89932357 -2.31245243 7.50168276 -6 8 C-6.33 7.34 -6.66 6.68 -7 6 C-6.21625 5.566875 -5.4325 5.13375 -4.625 4.6875 C-1.78301625 3.10779753 -1.78301625 3.10779753 0 0 Z " fill="#404040" transform="translate(145,420)"/>
<path d="M0 0 C0.66 0 1.32 0 2 0 C2 0.66 2 1.32 2 2 C1.34 2 0.68 2 0 2 C0 1.34 0 0.68 0 0 Z M-1 2 C-0.34 2.66 0.32 3.32 1 4 C0.67 4.66 0.34 5.32 0 6 C-0.0396713 7.66619446 -0.04384447 9.33391013 0 11 C-0.66 10.67 -1.32 10.34 -2 10 C-2 9.01 -2 8.02 -2 7 C-2.66 6.34 -3.32 5.68 -4 5 C-3.01 4.01 -2.02 3.02 -1 2 Z " fill="#363636" transform="translate(285,401)"/>
<path d="M0 0 C2.97 0.99 5.94 1.98 9 3 C9 3.66 9 4.32 9 5 C9.99 5.33 10.98 5.66 12 6 C11.01 6.495 11.01 6.495 10 7 C7.87109375 6.07421875 7.87109375 6.07421875 5.4375 4.6875 C4.63183594 4.23761719 3.82617188 3.78773438 2.99609375 3.32421875 C1 2 1 2 0 0 Z " fill="#AFEAF5" transform="translate(172,289)"/>
<path d="M0 0 C1.65 0 3.3 0 5 0 C1.4912812 3.09592835 -1.49197399 4.74194623 -6 6 C-5.67 5.01 -5.34 4.02 -5 3 C-3.68 3 -2.36 3 -1 3 C-0.67 2.01 -0.34 1.02 0 0 Z " fill="#D2F9FD" transform="translate(298,288)"/>
<path d="M0 0 C1.32 0.33 2.64 0.66 4 1 C3.01 2.485 3.01 2.485 2 4 C3.2065625 4.185625 3.2065625 4.185625 4.4375 4.375 C5.7059375 4.684375 5.7059375 4.684375 7 5 C7.33 5.66 7.66 6.32 8 7 C5.07120629 6.37240135 2.63904371 5.41377341 0 4 C0 2.68 0 1.36 0 0 Z " fill="#129CC1" transform="translate(180,248)"/>
<path d="M0 0 C1.32 1.65 2.64 3.3 4 5 C3.01 5.495 3.01 5.495 2 6 C2.33 7.32 2.66 8.64 3 10 C2.34 10 1.68 10 1 10 C-0.83691257 6.21812119 -1.15837626 4.05431692 0 0 Z " fill="#3D3D3D" transform="translate(370,417)"/>
<path d="M0 0 C5.66153846 2.33846154 5.66153846 2.33846154 7.375 5.6875 C7.684375 6.8321875 7.684375 6.8321875 8 8 C7.01 7.67 6.02 7.34 5 7 C5 6.01 5 5.02 5 4 C3.35 3.67 1.7 3.34 0 3 C0 2.01 0 1.02 0 0 Z " fill="#DBF7FD" transform="translate(193,261)"/>
<path d="M0 0 C6.52307692 0.61538462 6.52307692 0.61538462 8.9375 2.5625 C9.288125 3.036875 9.63875 3.51125 10 4 C5.66905042 4 3.72965139 3.03435531 0 1 C0 0.67 0 0.34 0 0 Z " fill="#2E9CBC" transform="translate(194,261)"/>
<path d="M0 0 C1.98 1.65 3.96 3.3 6 5 C5.67 5.66 5.34 6.32 5 7 C3.68 6.67 2.36 6.34 1 6 C0.67 4.02 0.34 2.04 0 0 Z " fill="#D4F1F9" transform="translate(176,248)"/>
<path d="M0 0 C6.75 -0.125 6.75 -0.125 9 1 C9 1.99 9 2.98 9 4 C7.35 4.33 5.7 4.66 4 5 C4.33 4.01 4.66 3.02 5 2 C3.35 1.67 1.7 1.34 0 1 C0 0.67 0 0.34 0 0 Z " fill="#424242" transform="translate(125,409)"/>
<path d="M0 0 C5.75 0.75 5.75 0.75 8 3 C7.67 3.99 7.34 4.98 7 6 C5.83054208 5.19152271 4.66449539 4.37810888 3.5 3.5625 C2.8503125 3.11003906 2.200625 2.65757812 1.53125 2.19140625 C1.0259375 1.79824219 0.520625 1.40507812 0 1 C0 0.67 0 0.34 0 0 Z " fill="#D2F8FB" transform="translate(158,279)"/>
<path d="M0 0 C1.32 0.33 2.64 0.66 4 1 C4.33 3.31 4.66 5.62 5 8 C2.27573689 5.64722731 1.1858237 3.37503669 0 0 Z " fill="#C9F2FB" transform="translate(133,249)"/>
<path d="M0 0 C0 1.98 0 3.96 0 6 C-1.32 6 -2.64 6 -4 6 C-3.625 3.5625 -3.625 3.5625 -3 1 C-1 0 -1 0 0 0 Z " fill="#0B9BC3" transform="translate(121,234)"/>
<path d="M0 0 C4.95 0.99 4.95 0.99 10 2 C10.33 1.34 10.66 0.68 11 0 C11 0.99 11 1.98 11 3 C7.37 3 3.74 3 0 3 C0 2.01 0 1.02 0 0 Z " fill="#03A2C6" transform="translate(224,182)"/>
<path d="M0 0 C3.82946843 1.45255699 5.12050295 3.42895561 7 7 C5.35 6.67 3.7 6.34 2 6 C1.34 4.02 0.68 2.04 0 0 Z " fill="#CCF2F7" transform="translate(320,100)"/>
<path d="M0 0 C3.875 4.75 3.875 4.75 5 7 C2.69 6.67 0.38 6.34 -2 6 C-1.49396008 3.83125748 -1.00016187 2.00032373 0 0 Z " fill="#3C3C3C" transform="translate(283,435)"/>
<path d="M0 0 C2 4 2 4 2 6 C2.66 6.33 3.32 6.66 4 7 C3.67 7.66 3.34 8.32 3 9 C2.34 9 1.68 9 1 9 C0.67 9.66 0.34 10.32 0 11 C0 7.37 0 3.74 0 0 Z " fill="#434343" transform="translate(164,418)"/>
<path d="M0 0 C2.64 0.33 5.28 0.66 8 1 C8 1.99 8 2.98 8 4 C4.31245243 3.50168276 2.39509338 2.89932357 0 0 Z " fill="#DAF0FA" transform="translate(288,118)"/>
<path d="M0 0 C1.98 0.99 1.98 0.99 4 2 C3.67 2.66 3.34 3.32 3 4 C4.65 4.33 6.3 4.66 8 5 C6.25 5.75 6.25 5.75 4 6 C1.75 4.1875 1.75 4.1875 0 2 C0 1.34 0 0.68 0 0 Z " fill="#CACACA" transform="translate(163,441)"/>
<path d="M0 0 C3.125 -0.1875 3.125 -0.1875 6 0 C6.33 0.66 6.66 1.32 7 2 C2.545 2.495 2.545 2.495 -2 3 C-1.34 2.01 -0.68 1.02 0 0 Z " fill="#292929" transform="translate(95,410)"/>
<path d="M0 0 C-0.804375 0.45375 -1.60875 0.9075 -2.4375 1.375 C-5.08856572 2.74725665 -5.08856572 2.74725665 -6 5 C-6.66 5 -7.32 5 -8 5 C-7.75 3.125 -7.75 3.125 -7 1 C-4.09342573 -1.03460199 -3.47133392 -1.15711131 0 0 Z " fill="#414141" transform="translate(294,403)"/>
<path d="M0 0 C0.66 0.33 1.32 0.66 2 1 C1.01 1.33 0.02 1.66 -1 2 C-1 2.66 -1 3.32 -1 4 C-2.98 4.33 -4.96 4.66 -7 5 C-7 4.34 -7 3.68 -7 3 C-4.69631264 1.93347808 -2.35981813 0.93578995 0 0 Z " fill="#2599C5" transform="translate(277,301)"/>
<path d="M0 0 C3 1.8125 3 1.8125 6 4 C6 4.99 6 5.98 6 7 C3.5625 6.3125 3.5625 6.3125 1 5 C0.1875 2.375 0.1875 2.375 0 0 Z " fill="#CAF2F9" transform="translate(186,256)"/>
<path d="M0 0 C0.99 0 1.98 0 3 0 C2.39816251 2.02045442 1.72693904 4.02111039 1 6 C0.01 6.495 0.01 6.495 -1 7 C-1.04254356 5.00045254 -1.04080783 2.99958364 -1 1 C-0.67 0.67 -0.34 0.34 0 0 Z " fill="#CDF3FA" transform="translate(341,242)"/>
<path d="M0 0 C0.66 0.33 1.32 0.66 2 1 C2.59355614 3.64860427 2.74209269 6.29197322 3 9 C2.34 8.67 1.68 8.34 1 8 C0.26924352 5.6859378 -0.40138258 3.35171131 -1 1 C-0.67 0.67 -0.34 0.34 0 0 Z " fill="#B7EDF2" transform="translate(125,231)"/>
<path d="M0 0 C0.66 1.32 1.32 2.64 2 4 C0 7 0 7 -2 8 C-1.125 1.125 -1.125 1.125 0 0 Z " fill="#0B96BA" transform="translate(317,206)"/>
<path d="M0 0 C1.125 3.75 1.125 3.75 0 6 C-0.99 6 -1.98 6 -3 6 C-2.625 3.5625 -2.625 3.5625 -2 1 C-1.34 0.67 -0.68 0.34 0 0 Z " fill="#0D99C7" transform="translate(230,175)"/>
<path d="M0 0 C0.33 0.66 0.66 1.32 1 2 C0.0625 4.625 0.0625 4.625 -1 7 C-1.99 7 -2.98 7 -4 7 C-2.92598892 4.08482708 -2.22189824 2.22189824 0 0 Z " fill="#309BBB" transform="translate(169,134)"/>
<path d="M0 0 C2.25 -0.25 2.25 -0.25 5 0 C7.3125 1.875 7.3125 1.875 9 4 C9 4.66 9 5.32 9 6 C5.56404834 4.47291037 2.88087546 2.40072955 0 0 Z " fill="#2D9ABC" transform="translate(304,86)"/>
<path d="M0 0 C0.99 0.99 1.98 1.98 3 3 C2.34 4.98 1.68 6.96 1 9 C0.34 8.34 -0.32 7.68 -1 7 C-0.625 3.375 -0.625 3.375 0 0 Z " fill="#474747" transform="translate(147,413)"/>
<path d="M0 0 C1.32 0 2.64 0 4 0 C4 1.65 4 3.3 4 5 C3.01 5.33 2.02 5.66 1 6 C0.67 4.02 0.34 2.04 0 0 Z " fill="#FBFBFB" transform="translate(395,403)"/>
<path d="M0 0 C1.98 0 3.96 0 6 0 C6 0.99 6 1.98 6 3 C4.35 3 2.7 3 1 3 C0.67 2.01 0.34 1.02 0 0 Z " fill="#FDFCED" transform="translate(182,291)"/>
<path d="M0 0 C3.93673644 1.31224548 6.22719294 2.91910327 9 6 C5.51669784 5.35494404 2.90567134 4.01782732 0 2 C0 1.34 0 0.68 0 0 Z " fill="#2996B5" transform="translate(165,286)"/>
<path d="M0 0 C2.91517292 1.07401108 4.77810176 1.77810176 7 4 C7 4.99 7 5.98 7 7 C6.34 7 5.68 7 5 7 C3.7109375 5.46875 3.7109375 5.46875 2.375 3.5 C1.70597656 2.52546875 1.70597656 2.52546875 1.0234375 1.53125 C0.68570313 1.0259375 0.34796875 0.520625 0 0 Z " fill="#278FC0" transform="translate(150,274)"/>
<path d="M0 0 C0.33 0 0.66 0 1 0 C0.67 2.31 0.34 4.62 0 7 C-0.99 7 -1.98 7 -3 7 C-1.125 1.125 -1.125 1.125 0 0 Z " fill="#BCF0F7" transform="translate(131,127)"/>
<path d="M0 0 C2.0625 0.4375 2.0625 0.4375 4 1 C4 1.99 4 2.98 4 4 C3.01 4.33 2.02 4.66 1 5 C0.34 3.68 -0.32 2.36 -1 1 C-0.67 0.67 -0.34 0.34 0 0 Z " fill="#0F98D8" transform="translate(309,84)"/>
</svg>
